<?xml version="1.0" encoding="UTF-8"?>
<svg width="163px" height="63px" viewBox="0 0 163 63" version="1.1" xmlns="http://www.w3.org/2000/svg" xmlns:xlink="http://www.w3.org/1999/xlink">
    <!-- Generator: sketchtool 52.2 (67145) - http://www.bohemiancoding.com/sketch -->
    <title>C68FE88B-361B-42E3-8234-D161E6A58793</title>
    <desc>Created with sketchtool.</desc>
    <g id="Page-V5" stroke="none" stroke-width="1" fill="none" fill-rule="evenodd">
        <g id="Desktop--zamkovy-system---V5" transform="translate(-97.000000, -1597.000000)">
            <g id="Group-3" transform="translate(97.000000, 1597.000000)">
                <path d="M-2.84217094e-14,23 L6.05812295,23 C10.0824275,23 13.7146328,25.4123202 15.2754049,29.1216352 L21.7322785,44.4669744 C23.9078587,49.637436 28.9708361,53 34.5803657,53 L38.7821942,53 C42.1005414,53 45.366745,53.8256651 48.2864612,55.402588 L57.9048208,60.597412 C60.8245369,62.1743349 64.0907405,63 67.4090878,63 L81.8564275,63 C84.5404074,63 87.1969305,62.4597733 89.6677357,61.4115036 L105.749782,54.5884964 C108.220587,53.5402267 110.87711,53 113.56109,53 L135.261266,53 C140.377444,53 144.906329,49.6914849 146.461903,44.8175267 L150.51397,32.1214999 C152.248063,26.6882027 157.296685,23 163,23 L163,0.361761406 L-2.84217094e-14,0.361761406 L-2.84217094e-14,23 Z" id="Path-10" fill="#FFFFFF"></path>
                <g id="logoAfred" transform="translate(39.000000, 5.000000)">
                    <path d="M28.8824359,5.32252102 C28.8824359,2.78626889 28.2611362,1.51814283 27.0185366,1.51814283 C26.731506,1.51814283 26.4926138,1.61547908 26.30141,1.85927884 C26.0625178,2.34687836 25.9190025,2.88360514 25.871314,3.41987279 C25.6324217,4.73666698 25.5365949,8.10211378 25.5365949,13.6130903 C27.7356632,11.9551601 28.8824359,9.22377634 28.8824359,5.32252102 Z M33.2801227,22.4895136 C33.7579071,22.4895136 33.9972493,23.1722448 33.9972493,24.5868344 C34.0449377,26.4403553 33.4713264,28.2934172 32.3722422,29.805343 C31.4162233,31.1712645 29.8865932,32 28.2138976,32 C26.1106561,32 24.581026,31.365937 23.5296302,30.0978109 C22.4777845,28.8296848 22,27.0252911 22,24.7328388 L22,9.85829851 C22,6.44418358 22.3347191,3.95705871 23.0037073,2.39646475 C23.5773186,0.884538926 25.0588104,-0.0906601196 26.6838175,0.00667613163 C29.217155,0.00667613163 30.5078929,1.76240172 30.5078929,5.32298016 C30.5078929,7.95656854 29.9819701,10.1025574 28.9782628,11.7118195 C28.1180708,13.1750772 26.9231597,14.394076 25.4893563,15.3206069 L25.4893563,25.9040877 C25.4893563,27.4160135 25.7763869,28.5376761 26.3495484,29.3182026 C26.9231597,30.0496019 27.7838016,30.4885333 28.6916821,30.4398652 C29.6953894,30.4398652 30.6037198,29.8544703 31.4639118,28.6354715 C32.3241038,27.4160135 32.7546497,25.4651563 32.7546497,22.7342317 C32.7541998,22.5386409 32.9454036,22.4895136 33.2801227,22.4895136 Z" id="Shape" fill="#663366" fill-rule="nonzero"></path>
                    <path d="M38.3155963,5.34176602 C38.3155963,2.79656295 37.6604557,1.52396141 36.3501744,1.52396141 C36.0475099,1.52396141 35.7453197,1.62164118 35.5437015,1.86630136 C35.241037,2.40492236 35.0901791,2.99192249 35.0901791,3.57938337 C34.8885609,5.14548497 34.737703,8.52280911 34.6869427,13.7104343 C37.1058869,12.0471137 38.3155963,9.25678965 38.3155963,5.34176602 Z M40.9869191,16.0602778 L34.6366567,16.0114379 L34.6366567,46.454352 C34.2837062,46.8459926 33.7296119,47.0418129 33.2253291,46.9925123 C32.6204745,47.0413522 32.0156198,46.796692 31.6123834,46.4050514 C31.158861,45.915731 30.9572427,45.2794303 31.0075287,44.5942896 L31.0075287,9.79541065 C31.0075287,6.41808651 31.3604792,3.97102396 32.1166661,2.40492236 C32.7718067,0.887660641 34.3344666,-0.0909800774 36.0479843,0.00669969304 C38.7193071,0.00669969304 40.0798743,1.76862159 40.0798743,5.34176602 C40.0798743,9.40377006 38.6685468,12.536434 35.846366,14.6406959 L39.6766379,14.6406959 C40.0798743,14.591856 40.4831108,14.6895358 40.7857753,14.9346567 C40.9366332,15.2769966 41.0372051,15.6686372 40.9869191,16.0602778 Z" id="Shape" fill="#663366" fill-rule="nonzero"></path>
                    <path d="M42.5675513,24.9565317 L42.5675513,31.4397062 C42.2213077,31.8418589 41.6777425,32.0429352 41.1830424,31.9923113 C40.5896815,32.0424621 39.9963205,31.791235 39.6007466,31.3389315 C39.1558422,30.8364772 38.9580552,30.1830973 39.0073856,29.4795667 L39.0073856,14.6533798 C39.3536292,14.2512272 39.8971943,14 40.3918945,14.1007747 C40.8861292,14.0506239 41.4301598,14.2517003 41.8257337,14.5530782 C42.2706381,14.9050801 42.5182209,15.4075344 42.6168817,15.9099887 L42.6168817,19.0259624 C43.9520601,15.6587616 45.7814733,14 48.1544517,14 C49.8354083,14 51.0714606,14.4523035 51.8132781,15.3569105 C52.604426,16.2615175 53,17.4173516 53,18.6238097 C53,19.2270387 52.802213,19.7796438 52.4066391,20.2319473 C52.1097259,20.5839492 51.7146173,20.7845524 51.269713,20.8351764 C50.5772258,20.8351764 50.1323215,20.6842508 49.8852041,20.3327221 C50.0829911,19.7801169 50.1323215,19.1768879 50.1323215,18.5736589 C50.1323215,17.8199774 49.8852041,17.0658229 49.3909694,16.5132177 C48.946065,15.9606126 48.2535779,15.6086108 47.5615561,15.6086108 C46.3255039,15.6086108 45.1881124,16.7644449 44.1996429,19.0765863 C43.2102426,21.3882546 42.5675513,23.347921 42.5675513,24.9565317 Z" id="Path" fill="#663366"></path>
                    <path d="M56.8317865,23.5839357 L56.8317865,23.9241869 C58.3950643,23.7785612 59.9075617,23.2432266 61.2183611,22.3676409 C62.4788547,21.540597 63.1845602,20.1786765 63.0839485,18.7192143 C63.1342544,17.8921705 62.8822506,17.0651266 62.3777684,16.3841663 C61.8737608,15.8488317 61.1675807,15.5571225 60.4115693,15.6056644 C59.2013816,15.5571225 58.0922801,16.2866246 57.6385784,17.4053777 C57.0837903,18.6225885 56.8317865,20.6654692 56.8317865,23.5839357 Z M70.1429023,23.0005172 C70.6976904,23.0005172 71,23.4383101 71,24.2653539 C71,26.2111509 70.243514,28.108406 68.8824088,29.5678683 C67.4705231,31.1729561 65.3529319,32 62.4788547,32 C59.6047775,32 57.3357941,31.2704979 55.571293,29.7624937 C53.8570977,28.3030315 53,26.1140672 53,23.1956006 C53,20.2771341 53.756486,18.0877118 55.2689833,16.4340821 C56.7311749,14.8289942 58.8995465,13.9529505 61.1177494,14.0019503 C62.8319447,14.0019503 64.0924383,14.4397432 64.8489243,15.3153289 C65.6557161,16.1909147 66.059112,17.3096678 66.059112,18.4288789 C66.1094178,20.3746759 65.1517085,22.2229311 63.487819,23.3906841 C61.7736237,24.7040627 59.6052521,25.3364811 56.9836532,25.3364811 C57.235657,27.0386527 57.8407509,28.3034895 58.9000211,29.1305333 C60.0594284,30.0061191 61.4713141,30.4929118 62.9335056,30.3953701 C64.6477009,30.3953701 66.2612845,29.7144098 67.4714723,28.5466568 C68.8330521,27.330362 69.4884518,25.5306486 69.4884518,23.1470588 C69.5881143,23.097601 69.7898123,23.0005172 70.1429023,23.0005172 Z" id="Shape" fill="#663366" fill-rule="nonzero"></path>
                    <path d="M85.4853155,1.56644862 C84.9422316,1.56644862 84.5478105,2.15278816 84.4488568,3.42250068 C84.3503676,4.69267308 84.2514139,7.37925785 84.2514139,11.6294147 C86.077644,9.33326311 86.9659045,7.03757136 86.9659045,4.88811959 C86.9166599,2.64117451 86.4725297,1.56644862 85.4853155,1.56644862 Z M76.4034095,30.4368878 C77.3906237,30.4368878 78.3281288,29.8992949 79.2168538,28.8250289 C80.1543589,27.6523498 80.5989537,26.1871908 80.5492446,24.7215719 L80.5492446,19.6408823 C80.5984891,18.5661564 80.3025572,17.4914305 79.6117395,16.6121511 C79.0686556,15.9283183 78.2788842,15.5374252 77.3906237,15.5374252 C76.7490507,15.5374252 76.0577684,15.5861719 75.4161954,15.7328718 C74.873576,15.9283183 74.4289812,16.2212581 74.0340955,16.6121511 C73.1950796,17.4914305 72.7509493,19.4941824 72.7509493,22.7183601 C72.7509493,25.8937911 73.145835,28.042783 73.8858972,29.0687622 C74.4294457,29.8992949 75.3669508,30.4368878 76.4034095,30.4368878 Z M69,22.7183601 C69,19.6896289 69.7405268,17.4914305 71.1718712,16.0745582 C72.6032156,14.6581459 74.5283995,13.9738531 76.9464935,14.0230597 C78.2296397,13.974313 79.5132504,14.2672528 80.5989537,14.9510857 L80.5989537,9.57791616 C80.5989537,6.25578531 80.9445948,3.81385358 81.6354125,2.29948801 C82.3266947,0.785122444 83.6098408,0.00333639172 85.4356064,0.00333639172 C86.373576,-0.045410268 87.311081,0.442976077 87.8049204,1.27350879 C88.3480044,2.1040415 88.6439363,3.32500736 88.6439363,4.88811959 C88.6439363,7.72140422 87.1628828,10.6038954 84.2017048,13.5346733 L84.2017048,25.9425377 C84.2017048,27.4569033 84.4483922,28.5803758 84.9914761,29.3621619 C85.4356064,30.0947414 86.2253777,30.5343811 87.0643936,30.4856344 C87.9034095,30.4856344 88.7424255,29.9480416 89.5321968,28.9225222 C90.3219682,27.896543 90.7168538,26.2354776 90.7168538,23.9397858 C90.7168538,23.4513995 90.7168538,23.0605064 90.6676093,22.7675666 C90.6676093,22.6208667 90.8650521,22.5233734 91.2599378,22.5233734 C91.7533126,22.5233734 92,23.2072063 92,24.6240785 C92,26.822277 91.5066252,28.5808357 90.519411,29.9485014 C89.6803951,31.2186738 88.1998061,32 86.669508,32 C83.8068191,32 81.9313444,30.7790341 81.0426194,28.287436 C80.5984891,29.3134152 79.8579623,30.2414413 78.9697019,30.9740208 C78.1306859,31.6578536 77.0942272,31.9995401 76.0080593,31.9995401 C71.3196049,31.9512533 69,28.8737755 69,22.7183601 Z" id="Shape" fill="#663366" fill-rule="nonzero"></path>
                    <path d="M16,15 C15.4193744,14.3333333 14.7737625,14 14,14 C14.7093835,14.3341176 15.3543881,14.6666667 16,15 Z" id="Path" fill="#663366"></path>
                    <path d="M22.3035549,22.6100571 C21.9087771,22.6100571 21.7113882,22.7061319 21.7113882,22.8506974 C21.7113882,27.9055024 20.4778235,30.4569236 17.9614631,30.4569236 C17.1226763,30.4569236 16.3823517,30.0236805 15.9875738,29.3013065 C15.4943338,28.5308951 15.2472493,27.4237687 15.2472493,25.9318897 L15.2472493,23.3804685 C14.8032403,23.1878656 13.2241289,22.5620197 11.5957864,21.9361737 L11.5957864,25.1614783 C11.6450175,26.5572825 11.1517775,27.9055024 10.1648329,28.9645914 C9.2275838,29.9271525 8.33910143,30.4088862 7.54954574,30.4088862 C6.85891673,30.4569236 6.21751884,30.2643207 5.62535207,29.9756431 C5.13211199,29.6869654 4.73733414,28.9650446 4.3425563,27.8094275 C3.89854733,26.269058 3.75038953,24.6321604 3.79962065,23.0437534 C3.79962065,21.7440241 3.89808289,20.6368976 4.04624069,19.7219208 C2.56605599,19.3852057 1.18433354,19.0960748 0.592166768,19 C0.246620042,20.1556171 0,21.4553464 0,23.0437534 C0,29.013082 2.31897151,31.9977464 7.00661009,31.9977464 C8.09201694,31.9977464 9.12819267,31.6610313 10.0162106,31.0832227 C10.9042285,30.4093394 11.6445531,29.5428532 12.0885621,28.5318015 C12.97658,30.8425825 14.7530803,31.9977464 17.4175985,31.9977464 C19.045941,32.0457838 20.5758213,31.323863 21.5130703,30.0241337 C22.500015,28.7244044 22.9937195,26.9433945 22.9937195,24.7286884 C23.0434151,23.2839405 22.796795,22.6100571 22.3035549,22.6100571 Z" id="Path" fill="#663366"></path>
                    <path d="M16.3027225,22.9878503 C16.3027225,22.9878503 10.9601924,20.7838449 9.09722724,20.2565256 C7.23472345,19.7296574 1.30350006,18.4837583 1.30350006,18.4837583 C1.10742275,18.4359432 0.960249427,18.1964167 1.00961477,18.0047052 L4.09748644,11.2966079 C4.14639043,11.1048964 4.39183309,10.9614512 4.58744904,11.0092662 C6.84210746,11.3926892 9.09676588,11.9195574 11.3025203,12.5903221 C13.4593708,13.2610867 15.6157598,14.0757477 17.7237063,14.9860389 C17.9197836,15.0816691 18.0669569,15.2738316 17.9686876,15.5129071 C17.527629,17.2856744 16.7922237,22.7483237 16.7922237,22.7483237 C16.7437811,22.9395841 16.4987998,23.0356654 16.3027225,22.9878503 Z" id="Path" fill="#663366"></path>
                    <path d="M15.6430866,18.9856642 C15.6430866,18.9856642 11.2198792,17.1630171 9.6475636,16.6658843 C8.07478541,16.1687514 3.20934981,14.6773529 3.20934981,14.6773529 C3.06178621,14.6222315 2.96371887,14.4563472 3.01275254,14.2353415 C3.06178621,14.0694572 3.20934981,13.9592144 3.40594709,14.0143358 C3.40594709,14.0143358 8.27138268,15.4506129 9.7951272,15.9477457 C11.3184091,16.4448786 15.7906502,18.3226471 15.7906502,18.3226471 C15.9382138,18.3777685 16.0362811,18.5436528 15.9872475,18.7646585 C15.9872475,18.9305428 15.7906502,19.0407856 15.6430866,18.9856642 Z" id="Path" fill="#F9B238"></path>
                    <path d="M15.5862777,20.9864537 C15.5862777,20.9864537 10.8280156,19.2066277 9.1251678,18.6310915 C7.42232001,18.0550625 2.21335956,16.6418452 2.21335956,16.6418452 C2.06296962,16.5896133 1.96302396,16.4324249 2.01299679,16.2230046 C2.06296962,16.0658162 2.26333239,15.9613524 2.41372232,16.0135843 C2.41372232,16.0135843 7.62268278,17.4268017 9.32553056,18.0028306 C11.0283783,18.5783668 15.7866404,20.3581929 15.7866404,20.3581929 C15.9370304,20.4104248 16.036976,20.5676132 15.9870032,20.7770334 C15.9365589,20.9337291 15.7361962,21.0386856 15.5862777,20.9864537 Z" id="Path" fill="#F9B238"></path>
                </g>
            </g>
        </g>
    </g>
</svg>