<?xml version="1.0" encoding="UTF-8"?>
<svg width="119px" height="61px" viewBox="0 0 119 61" version="1.1" xmlns="http://www.w3.org/2000/svg" xmlns:xlink="http://www.w3.org/1999/xlink">
    <!-- Generator: Sketch 52.2 (67145) - http://www.bohemiancoding.com/sketch -->
    <title>logoAfred</title>
    <desc>Created with Sketch.</desc>
    <g id="Page-V5" stroke="none" stroke-width="1" fill="none" fill-rule="evenodd">
        <g id="Desktop--zamkovy-system---V5" transform="translate(-120.000000, -35.000000)">
            <g id="logoAfred" transform="translate(120.000000, 35.000000)">
                <path d="M36.6030449,6.98580884 C36.6030449,3.65697792 35.8264202,1.99256246 34.2731708,1.99256246 C33.9143825,1.99256246 33.6157672,2.12031629 33.3767625,2.44030348 C33.0781472,3.08027785 32.8987531,3.78473175 32.8391425,4.48858304 C32.5405272,6.21687541 32.4207436,10.6340243 32.4207436,17.867181 C35.169579,15.6911476 36.6030449,12.1062064 36.6030449,6.98580884 Z M42.1001533,29.5174867 C42.6973839,29.5174867 42.9965616,30.4135713 42.9965616,32.2702201 C43.0561722,34.7029664 42.339158,37.1351101 40.9653027,39.1195127 C39.7702792,40.9122846 37.8582415,42 35.767372,42 C33.1383201,42 31.2262824,41.1677923 29.9120377,39.5033768 C28.5972306,37.8389613 28,35.4706946 28,32.4618509 L28,12.9390168 C28,8.45799095 28.4183988,5.19363955 29.2546342,3.14535999 C29.9716483,1.16095734 31.823513,-0.118991407 33.8547719,0.00876242276 C37.0214438,0.00876242276 38.6348662,2.31315226 38.6348662,6.98641146 C38.6348662,10.4429962 37.9774626,13.2596066 36.7228285,15.3717631 C35.6475884,17.2922888 34.1539496,18.8922247 32.3616954,20.1082966 L32.3616954,33.9991151 C32.3616954,35.9835178 32.7204837,37.4556999 33.4369354,38.4801409 C34.1539496,39.4401025 35.229752,40.0162 36.3646026,39.952323 C37.6192367,39.952323 38.7546497,39.1839922 39.8298897,37.5840563 C40.9051298,35.9835178 41.4433121,33.4230176 41.4433121,29.8386791 C41.4427498,29.5819662 41.6817545,29.5174867 42.1001533,29.5174867 Z" id="Shape" fill="#663366" fill-rule="nonzero"></path>
                <path d="M49.5102752,6.93293037 C49.5102752,3.6295817 48.6585923,1.97790736 46.9552267,1.97790736 C46.5617628,1.97790736 46.1689157,2.10468323 45.906812,2.42222091 C45.5133481,3.12128221 45.3172328,3.88313344 45.3172328,4.64558267 C45.0551291,6.67818263 44.8590139,11.0615182 44.7930255,17.7943934 C47.937653,15.6356156 49.5102752,12.0141313 49.5102752,6.93293037 Z M52.9829949,20.8441904 L44.7276537,20.7808024 L44.7276537,60.2918186 C44.2688181,60.8001181 43.5484955,61.0542678 42.8929279,60.9902819 C42.1066168,61.0536698 41.3203057,60.7361322 40.7960984,60.2278327 C40.2065192,59.5927573 39.9444156,58.7669201 40.0097873,57.877695 L40.0097873,12.7131925 C40.0097873,8.32985696 40.4686229,5.15388216 41.4516659,3.12128221 C42.3033488,1.15207019 44.3348065,-0.118080526 46.5623795,0.00869534628 C50.0350993,0.00869534628 51.8038366,2.29544504 51.8038366,6.93293037 C51.8038366,12.2048931 49.9691108,16.270691 46.3002759,19.0017542 L51.2796292,19.0017542 C51.8038366,18.9383663 52.328044,19.0651421 52.7215079,19.3832778 C52.9176231,19.8275914 53.0483666,20.3358909 52.9829949,20.8441904 Z" id="Shape" fill="#663366" fill-rule="nonzero"></path>
                <path d="M54.5868516,32.608709 L54.5868516,41.2529416 C54.1416813,41.7891452 53.4428118,42.057247 52.8067688,41.9897484 C52.0438762,42.0566162 51.2809835,41.7216466 50.7723884,41.1185753 C50.2003685,40.4486362 49.946071,39.5774631 50.0094958,38.6394222 L50.0094958,18.8711731 C50.4546661,18.3349695 51.1535356,18 51.7895786,18.1343663 C52.4250233,18.0674986 53.1244911,18.3356004 53.6330862,18.7374376 C54.2051061,19.2067735 54.5234268,19.8767125 54.6502764,20.5466516 L54.6502764,24.7012832 C56.3669344,20.2116821 58.7190371,18 61.7700093,18 C63.9312393,18 65.5204494,18.6030713 66.4742147,19.809214 C67.4914049,21.0153566 68,22.5564688 68,24.1650796 C68,24.969385 67.7457025,25.7061918 67.2371074,26.3092631 C66.8553619,26.7785989 66.3473651,27.0460699 65.7753452,27.1135685 C64.8850047,27.1135685 64.3129848,26.9123344 63.9952624,26.4436294 C64.24956,25.7068226 64.3129848,24.9025172 64.3129848,24.0982118 C64.3129848,23.0933032 63.9952624,22.0877638 63.3598177,21.350957 C62.7877978,20.6141502 61.8974573,20.1448143 61.007715,20.1448143 C59.418505,20.1448143 57.9561445,21.6859265 56.6852551,24.7687817 C55.413169,27.8510061 54.5868516,30.4638946 54.5868516,32.608709 Z" id="Path" fill="#663366"></path>
                <path d="M73.1090487,30.778581 L73.1090487,31.2322492 C75.1934191,31.0380817 77.2100823,30.3243022 78.9578148,29.1568545 C80.6384729,28.0541294 81.5794136,26.2382354 81.4452647,24.2922857 C81.5123392,23.1895606 81.1763341,22.0868355 80.5036912,21.1788885 C79.8316811,20.465109 78.8901076,20.0761633 77.8820924,20.1408858 C76.2685088,20.0761633 74.7897068,21.0488328 74.1847711,22.5405037 C73.4450538,24.1634513 73.1090487,26.8872923 73.1090487,30.778581 Z M90.8572031,30.0006896 C91.5969205,30.0006896 92,30.5844134 92,31.6871386 C92,34.2815346 90.991352,36.811208 89.176545,38.7571577 C87.2940308,40.8972749 84.4705758,42 80.6384729,42 C76.80637,42 73.7810588,41.0273305 71.4283906,39.0166583 C69.1427969,37.0707087 68,34.1520895 68,30.2608009 C68,26.3695122 69.008648,23.4502824 71.0253111,21.2454427 C72.9748998,19.1053256 75.866062,17.9372673 78.8236659,18.0026004 C81.1092596,18.0026004 82.7899177,18.5863242 83.7985657,19.7537719 C84.8742881,20.9212196 85.4121493,22.4128904 85.4121493,23.9051718 C85.4792238,26.4995678 84.202278,28.9639082 81.9837587,30.5209121 C79.6981649,32.2720836 76.8070027,33.1153081 73.3115377,33.1153081 C73.6475427,35.3848703 74.4543345,37.0713193 75.8666948,38.1740444 C77.4125712,39.3414921 79.2950854,39.990549 81.2446741,39.8604934 C83.5302679,39.8604934 85.6817127,38.9525464 87.2952964,37.3955425 C89.1107361,35.773816 89.9846024,33.3741982 89.9846024,30.1960783 C90.1174858,30.1301346 90.3864164,30.0006896 90.8572031,30.0006896 Z" id="Shape" fill="#663366" fill-rule="nonzero"></path>
                <path d="M110.502585,2.05596382 C109.794215,2.05596382 109.279753,2.82553446 109.150683,4.49203215 C109.022219,6.15913342 108.893149,9.68527593 108.893149,15.2636068 C111.275188,12.2499078 112.433788,9.23681241 112.433788,6.41565697 C112.369556,3.46654154 111.790256,2.05596382 110.502585,2.05596382 Z M98.6566212,39.9484152 C99.9442918,39.9484152 101.167125,39.2428245 102.326331,37.8328504 C103.549164,36.2937091 104.12907,34.3706879 104.064232,32.4470631 L104.064232,25.778658 C104.128464,24.3680803 103.742466,22.9575025 102.841399,21.8034484 C102.133029,20.9059177 101.102892,20.3928706 99.9442918,20.3928706 C99.1074574,20.3928706 98.2057849,20.4568506 97.3689505,20.6493942 C96.6611861,20.9059177 96.0812798,21.2904013 95.5662115,21.8034484 C94.4718429,22.9575025 93.8925426,25.5861144 93.8925426,29.8178476 C93.8925426,33.9856008 94.4076109,36.8061526 95.3729094,38.1527504 C96.0818858,39.2428245 97.3047184,39.9484152 98.6566212,39.9484152 Z M89,29.8178476 C89,25.842638 89.9659045,22.9575025 91.8328755,21.0978577 C93.6998465,19.2388165 96.2109558,18.3406822 99.3649915,18.4052658 C101.03866,18.3412858 102.712935,18.7257694 104.12907,19.6233 L104.12907,12.571015 C104.12907,8.21071822 104.579906,5.00568283 105.480973,3.01807802 C106.382645,1.03047321 108.056314,0.00437901413 110.437747,0.00437901413 C111.661186,-0.0596009767 112.884019,0.581406102 113.528157,1.67148029 C114.236527,2.76155447 114.622526,4.36407217 114.622526,6.41565697 C114.622526,10.134343 112.690717,13.9176127 108.828311,17.7642587 L108.828311,34.0495808 C108.828311,36.0371856 109.150077,37.5117433 109.858447,38.5378375 C110.437747,39.4993481 111.467884,40.0763752 112.562253,40.0123952 C113.656621,40.0123952 114.75099,39.3068045 115.781126,37.9608104 C116.811263,36.6142127 117.326331,34.4340643 117.326331,31.4209689 C117.326331,30.7799618 117.326331,30.2669147 117.262099,29.8824312 C117.262099,29.6898876 117.519633,29.5619276 118.034701,29.5619276 C118.678234,29.5619276 119,30.4594583 119,32.3191031 C119,35.2042385 118.356468,37.5123469 117.068797,39.3074081 C115.974428,40.9745094 114.043225,42 112.047184,42 C108.313242,42 105.866971,40.3974823 104.707764,37.1272598 C104.128464,38.4738575 103.16256,39.6918917 102.003959,40.6534023 C100.90959,41.5509329 99.5576876,41.9993964 98.1409469,41.9993964 C92.0255716,41.93602 89,37.8968304 89,29.8178476 Z" id="Shape" fill="#663366" fill-rule="nonzero"></path>
                <path d="M20,19 C19.1290616,18.3333333 18.1606438,18 17,18 C18.0640753,18.3341176 19.0315821,18.6666667 20,19 Z" id="Path" fill="#663366"></path>
                <path d="M29.0915934,29.7208439 C28.5766658,29.7208439 28.3192019,29.8464802 28.3192019,30.0355273 C28.3192019,36.645657 26.7102046,39.9821309 23.4279953,39.9821309 C22.3339256,39.9821309 21.3682848,39.4155822 20.8533572,38.4709393 C20.2100006,37.4634783 19.8877164,36.0156975 19.8877164,34.0647788 L19.8877164,30.7283049 C19.3085743,30.4764397 17.2488638,29.6580257 15.1249388,28.8396118 L15.1249388,33.0573178 C15.1891533,34.8826001 14.5457967,36.645657 13.2584776,38.0306196 C12.0359789,39.2893532 10.8770888,39.9193127 9.84723357,39.9193127 C8.94641313,39.9821309 8.10980719,39.7302656 7.33741575,39.352764 C6.69405912,38.9752624 6.17913149,38.0312122 5.66420387,36.5200206 C5.08506174,34.5056912 4.89181243,32.3651328 4.95602694,30.2879852 C4.95602694,28.5883392 5.08445594,27.1405584 5.27770525,25.9440503 C3.34702956,25.5037305 1.54478287,25.1256363 0.772391437,25 C0.321678316,26.5111916 0,28.2108376 0,30.2879852 C0,38.0940303 3.02474545,41.9970529 9.13905664,41.9970529 C10.5548047,41.9970529 11.9063383,41.5567332 13.0646225,40.8011374 C14.2229068,39.9199053 15.1885475,38.786808 15.7676897,37.4646635 C16.9259739,40.486454 19.2431482,41.9970529 22.7186068,41.9970529 C24.8425318,42.0598711 26.8380278,41.1158208 28.0605265,39.4161748 C29.3478456,37.7165288 29.991808,35.3875159 29.991808,32.4913617 C30.0566283,30.602076 29.73495,29.7208439 29.0915934,29.7208439 Z" id="Path" fill="#663366"></path>
                <path d="M20.8035232,29.9848128 C20.8035232,29.9848128 13.8896607,27.2298062 11.4787647,26.570657 C9.06846564,25.9120717 1.39276479,24.3546979 1.39276479,24.3546979 C1.13901768,24.294929 0.948558082,23.9955208 1.01244265,23.7558815 L5.00851186,15.3707599 C5.07179937,15.1311206 5.38943105,14.9518139 5.64258111,15.0115828 C8.56037436,15.4908615 11.4781676,16.1494468 14.3326733,16.9879026 C17.1238916,17.8263583 19.9145127,18.8446846 22.6424434,19.9825486 C22.8961906,20.1020863 23.0866502,20.3422895 22.9594781,20.6411339 C22.3886963,22.857093 21.4369954,29.6854046 21.4369954,29.6854046 C21.3743049,29.9244801 21.0572703,30.0445817 20.8035232,29.9848128 Z" id="Path" fill="#663366"></path>
                <path d="M20.5332671,23.982797 C20.5332671,23.982797 14.7490728,21.7956205 12.6929678,21.1990611 C10.6362578,20.6025017 4.27376514,18.8128235 4.27376514,18.8128235 C4.08079736,18.7466778 3.95255544,18.5476167 4.0166764,18.2824098 C4.08079736,18.0833487 4.27376514,17.9510573 4.53085388,18.017203 C4.53085388,18.017203 10.8933466,19.7407355 12.8859356,20.3372949 C14.8779196,20.9338543 20.7262349,23.1871765 20.7262349,23.1871765 C20.9192026,23.2533222 21.0474446,23.4523833 20.9833236,23.7175902 C20.9833236,23.9166513 20.7262349,24.0489427 20.5332671,23.982797 Z" id="Path" fill="#F9B238"></path>
                <path d="M19.4680713,26.9837445 C19.4680713,26.9837445 13.3503057,24.8479532 11.16093,24.1573098 C8.9715543,23.466075 2.27431943,21.7702142 2.27431943,21.7702142 C2.08096095,21.7075359 1.95245938,21.5189099 2.01671016,21.2676055 C2.08096095,21.0789794 2.33857022,20.9536229 2.5319287,21.0163012 C2.5319287,21.0163012 9.22916357,22.712162 11.4185393,23.4033968 C13.607915,24.0940402 19.7256806,26.2298315 19.7256806,26.2298315 C19.9190391,26.2925097 20.0475406,26.4811358 19.9832898,26.7324401 C19.9184329,26.9204749 19.6608236,27.0464227 19.4680713,26.9837445 Z" id="Path" fill="#F9B238"></path>
            </g>
        </g>
    </g>
</svg>