<svg id="Vrstva_1" data-name="Vrstva 1" xmlns="http://www.w3.org/2000/svg" viewBox="0 0 188 58"><defs><style>.cls-1{fill:#fff;}.cls-1,.cls-3,.cls-4{fill-rule:evenodd;}.cls-2,.cls-3{fill:#636;}.cls-4{fill:#f9b238;}</style></defs><title>alfred-logo-footer</title><g id="alfred-logo-footer"><path id="Path-10" class="cls-1" d="M-6,18H.06a10,10,0,0,1,9.22,6.12l6.45,15.35A13.94,13.94,0,0,0,28.58,48h4.2a20.1,20.1,0,0,1,9.51,2.4l9.61,5.2A20.1,20.1,0,0,0,61.41,58H95.86a20,20,0,0,0,7.81-1.59l16.08-6.82A20,20,0,0,1,127.56,48h24.2a15.18,15.18,0,0,0,14.46-10.56l3.29-10.32A13.12,13.12,0,0,1,182,18Z" transform="translate(6 0)"/><g id="Group-Copy-3"><g id="logoAfred-Copy-4"><path id="Shape" class="cls-2" d="M74.26,5.35c0-2.55-.59-3.82-1.78-3.82a.78.78,0,0,0-.68.34,4.5,4.5,0,0,0-.41,1.57,87.84,87.84,0,0,0-.32,10.25C73.17,12,74.26,9.28,74.26,5.35Zm4.2,17.27c.45,0,.68.69.68,2.11A8.89,8.89,0,0,1,77.59,30a4.78,4.78,0,0,1-4,2.21,5.31,5.31,0,0,1-4.47-1.92,8.57,8.57,0,0,1-1.45-5.39v-15a21.46,21.46,0,0,1,1-7.51A3.53,3.53,0,0,1,72.16,0c2.42,0,3.65,1.76,3.65,5.34a12.57,12.57,0,0,1-1.46,6.43A10.64,10.64,0,0,1,71,15.41V26.05a5.94,5.94,0,0,0,.83,3.44,2.62,2.62,0,0,0,2.23,1.13,3.29,3.29,0,0,0,2.64-1.82c.82-1.22,1.24-3.19,1.24-5.93C78,22.67,78.14,22.62,78.46,22.62Z" transform="translate(6 0)"/><path class="cls-2" d="M84.11,5.31c0-2.53-.65-3.79-2-3.79a1,1,0,0,0-.8.34,3.46,3.46,0,0,0-.45,1.7c-.2,1.56-.35,4.92-.4,10.08C82.91,12,84.11,9.21,84.11,5.31ZM86.76,16l-6.3,0V46.2a1.7,1.7,0,0,1-1.4.54,2.1,2.1,0,0,1-1.6-.59,2.32,2.32,0,0,1-.6-1.8V9.74c0-3.36.35-5.79,1.1-7.35A4,4,0,0,1,81.86,0c2.65,0,4,1.75,4,5.3,0,4-1.4,7.16-4.2,9.25h3.8a1.47,1.47,0,0,1,1.1.29A2.14,2.14,0,0,1,86.76,16Z" transform="translate(6 0)"/><path id="Path" class="cls-3" d="M88,25v6.62a1.6,1.6,0,0,1-1.36.57,1.84,1.84,0,0,1-1.55-.67,2.59,2.59,0,0,1-.59-1.9V14.46a1.45,1.45,0,0,1,1.36-.56,2,2,0,0,1,1.41.46A2.33,2.33,0,0,1,88,15.75v3.18c1.31-3.44,3.1-5.14,5.43-5.14a4.33,4.33,0,0,1,3.59,1.39,5.13,5.13,0,0,1,1.16,3.34,2.49,2.49,0,0,1-.58,1.64,1.65,1.65,0,0,1-1.11.62,1.5,1.5,0,0,1-1.36-.52,5.61,5.61,0,0,0,.24-1.79,3.24,3.24,0,0,0-.73-2.11,2.32,2.32,0,0,0-1.79-.92c-1.22,0-2.33,1.18-3.3,3.54A17.06,17.06,0,0,0,88,25Z" transform="translate(6 0)"/><path class="cls-2" d="M102.12,23.59v.34a9.53,9.53,0,0,0,4.47-1.59,4.1,4.1,0,0,0,1.9-3.72,3.69,3.69,0,0,0-.72-2.39,2.53,2.53,0,0,0-2-.8,3,3,0,0,0-2.83,1.84C102.38,18.52,102.12,20.6,102.12,23.59Zm13.55-.6c.56,0,.87.45.87,1.29a8,8,0,0,1-2.15,5.42c-1.44,1.64-3.6,2.49-6.52,2.49a10.35,10.35,0,0,1-7-2.29c-1.74-1.49-2.62-3.73-2.62-6.71a9.76,9.76,0,0,1,2.31-6.91,7.82,7.82,0,0,1,6-2.48,4.77,4.77,0,0,1,3.8,1.34,4.69,4.69,0,0,1,1.23,3.18,6,6,0,0,1-2.61,5.07,10.55,10.55,0,0,1-6.62,2,5.65,5.65,0,0,0,2,3.87,6.09,6.09,0,0,0,4.1,1.3A6.64,6.64,0,0,0,113,28.66a7,7,0,0,0,2-5.52A1.41,1.41,0,0,1,115.67,23Z" transform="translate(6 0)"/><path class="cls-2" d="M130.66,1.58c-.54,0-.93.59-1,1.86s-.2,4-.2,8.26a11.11,11.11,0,0,0,2.71-6.78C132.09,2.66,131.64,1.58,130.66,1.58Zm-9,29a3.69,3.69,0,0,0,2.8-1.62,6.25,6.25,0,0,0,1.33-4.12V19.76a4.6,4.6,0,0,0-.93-3.05,2.79,2.79,0,0,0-2.22-1.08,9.37,9.37,0,0,0-2,.19,3.86,3.86,0,0,0-1.38.89c-.83.88-1.27,2.9-1.27,6.14s.39,5.36,1.13,6.39A3,3,0,0,0,121.62,30.61Zm-7.37-7.76c0-3.05.74-5.26,2.16-6.68a7.56,7.56,0,0,1,5.75-2.07,6.37,6.37,0,0,1,3.64.94V9.63c0-3.34.34-5.79,1-7.32A3.83,3.83,0,0,1,130.61,0,2.62,2.62,0,0,1,133,1.28a6.75,6.75,0,0,1,.84,3.64q0,4.28-4.43,8.69V26.09a6,6,0,0,0,.79,3.44,2.26,2.26,0,0,0,2.06,1.13,3.29,3.29,0,0,0,2.46-1.57q1.19-1.55,1.18-5a7.84,7.84,0,0,0-.05-1.18c0-.15.2-.25.59-.25s.74.69.74,2.12a8.89,8.89,0,0,1-1.48,5.35,4.62,4.62,0,0,1-3.83,2.07c-2.85,0-4.72-1.23-5.6-3.74a7.33,7.33,0,0,1-2.06,2.7,4.6,4.6,0,0,1-3,1C116.56,32.14,114.25,29,114.25,22.85Z" transform="translate(6 0)"/><path class="cls-3" d="M68.53,22.78c-.39,0-.59.09-.59.24,0,5.06-1.23,7.62-3.73,7.62a2.19,2.19,0,0,1-2-1.16,6.29,6.29,0,0,1-.74-3.37V23.55c-.44-.19-2-.82-3.63-1.45v3.23a5.25,5.25,0,0,1-1.43,3.81,3.86,3.86,0,0,1-2.6,1.45,3.68,3.68,0,0,1-1.91-.43A3.92,3.92,0,0,1,50.65,28a15.79,15.79,0,0,1-.54-4.78,22.13,22.13,0,0,1,.24-3.33c-1.47-.34-2.85-.63-3.43-.72a13.69,13.69,0,0,0-.59,4.05c0,6,2.3,9,7,9a5.48,5.48,0,0,0,3-.91,6.65,6.65,0,0,0,2.06-2.56,5.14,5.14,0,0,0,5.3,3.47,4.79,4.79,0,0,0,4.08-2,8.69,8.69,0,0,0,1.48-5.31C69.27,23.45,69,22.78,68.53,22.78Z" transform="translate(6 0)"/><path class="cls-3" d="M62.2,23s-5.27-2.11-7.11-2.62-7.7-1.7-7.7-1.7a.4.4,0,0,1-.29-.46l3-6.42a.44.44,0,0,1,.48-.28A55.81,55.81,0,0,1,57.26,13a66.1,66.1,0,0,1,6.35,2.29.39.39,0,0,1,.24.51c-.44,1.7-1.16,6.93-1.16,6.93A.42.42,0,0,1,62.2,23Z" transform="translate(6 0)"/><path class="cls-4" d="M62,18.38c-10.76-4.09-1.34-.78-6-2.13-5.64-1.65-1.84-.54-6.42-1.83a.33.33,0,0,1-.2-.41.31.31,0,0,1,.39-.2s4.86,1.32,6.38,1.78c3,.88.05-.12,6,2.18a.32.32,0,0,1,.2.41C62.34,18.33,62.14,18.43,62,18.38Z" transform="translate(6 0)"/><path class="cls-4" d="M61.18,20.68c-11-3.87-1.5-.63-6.34-2.17-7-2.22-2-.62-6.78-1.83a.3.3,0,0,1-.2-.38.33.33,0,0,1,.4-.19s5.11,1.3,6.78,1.82,6.34,2.17,6.34,2.17a.31.31,0,0,1,.2.39A.34.34,0,0,1,61.18,20.68Z" transform="translate(6 0)"/></g></g></g></svg>