<?xml version="1.0" encoding="UTF-8"?>
<svg width="59px" height="30px" viewBox="0 0 59 30" version="1.1" xmlns="http://www.w3.org/2000/svg" xmlns:xlink="http://www.w3.org/1999/xlink">
    <!-- Generator: Sketch 52.2 (67145) - http://www.bohemiancoding.com/sketch -->
    <title>logoAfred</title>
    <desc>Created with Sketch.</desc>
    <g id="Page-V5" stroke="none" stroke-width="1" fill="none" fill-rule="evenodd">
        <g id="Mobile-collapsed-V5" transform="translate(-131.000000, -83.000000)">
            <g id="logoAfred" transform="translate(131.000000, 83.000000)">
                <path d="M18.5882906,3.32657564 C18.5882906,1.74141806 18.1740908,0.948839266 17.3456911,0.948839266 C17.1543373,0.948839266 16.9950758,1.00967442 16.8676067,1.16204927 C16.7083452,1.46679898 16.6126683,1.80225321 16.580876,2.13742049 C16.4216145,2.96041686 16.3577299,5.06382111 16.3577299,8.50818144 C17.8237755,7.47197507 18.5882906,5.76486021 18.5882906,3.32657564 Z M21.5200818,14.055946 C21.8386048,14.055946 21.9981662,14.482653 21.9981662,15.3667715 C22.0299585,16.5252221 21.647551,17.6833857 20.9148281,18.6283394 C20.2774822,19.4820403 19.2577288,20 18.1425984,20 C16.7404374,20 15.720684,19.6037106 15.0197534,18.8111318 C14.318523,18.018553 14,16.890807 14,15.4580242 L14,6.16143657 C14,4.02761474 14.223146,2.47316169 14.6691382,1.49779047 C15.0515458,0.552836829 16.039207,-0.0566625748 17.122545,0.00417258227 C18.8114367,0.00417258227 19.6719286,1.10150108 19.6719286,3.3268626 C19.6719286,4.97285534 19.3213134,6.31409837 18.6521752,7.31988717 C18.0787138,8.23442324 17.2821064,8.99629749 16.3262376,9.57537932 L16.3262376,16.1900548 C16.3262376,17.1350085 16.5175913,17.8360476 16.8996989,18.3238766 C17.2821064,18.7810012 17.8558677,19.0553333 18.4611214,19.0249157 C19.1302596,19.0249157 19.7358132,18.6590439 20.3092745,17.8971697 C20.8827359,17.1350085 21.1697665,15.9157227 21.1697665,14.2088948 C21.1694666,14.0866506 21.2969357,14.055946 21.5200818,14.055946 Z" id="Shape" fill="#FFFFFF" fill-rule="nonzero"></path>
                <path d="M24.3893578,3.40963789 C24.3893578,1.78504018 23.9962734,0.972741326 23.2101046,0.972741326 C23.0285059,0.972741326 22.8471918,1.03509012 22.7262209,1.19125619 C22.5446222,1.53505682 22.4541075,1.90973776 22.4541075,2.28471279 C22.3331365,3.28435211 22.2426218,5.44009092 22.2121656,8.75134103 C23.6635322,7.68964702 24.3893578,5.90858914 24.3893578,3.40963789 Z M25.9921515,10.2512412 L22.181994,10.2200668 L22.181994,29.6517141 C21.9702237,29.9016974 21.6377671,30.0266891 21.3351975,29.9952206 C20.9722847,30.026395 20.6093719,29.8702289 20.36743,29.6202456 C20.0953166,29.3079134 19.9743456,28.901764 20.0045172,28.4644402 L20.0045172,6.25238978 C20.0045172,4.09665097 20.2162875,2.53469615 20.6699997,1.53505682 C21.063084,0.566591899 22.0006799,-0.0580723898 23.0287906,0.00427639981 C24.6315843,0.00427639981 25.4479246,1.1289074 25.4479246,3.40963789 C25.4479246,6.00240642 24.6011281,8.00197916 22.9078196,9.34512502 L25.2059827,9.34512502 C25.4479246,9.31395063 25.6898665,9.37629942 25.8714652,9.53275959 C25.9619799,9.75127445 26.0223231,10.0012578 25.9921515,10.2512412 Z" id="Shape" fill="#FFFFFF" fill-rule="nonzero"></path>
                <path d="M27.2934258,15.6956583 L27.2934258,19.6575982 C27.0708407,19.9033582 26.7214059,20.0262382 26.4033844,19.9953014 C26.0219381,20.0259491 25.6404918,19.8724214 25.3861942,19.5960137 C25.1001843,19.2889583 24.9730355,18.8896706 25.0047479,18.4597352 L25.0047479,9.39928768 C25.227333,9.1535277 25.5767678,9 25.8947893,9.06158456 C26.2125117,9.03093684 26.5622456,9.15381683 26.8165431,9.33799225 C27.1025531,9.55310451 27.2617134,9.86015992 27.3251382,10.1672153 L27.3251382,12.0714214 C28.1834672,10.0136876 29.3595186,9 30.8850047,9 C31.9656196,9 32.7602247,9.27640769 33.2371074,9.82922307 C33.7457025,10.3820385 34,11.0883815 34,11.8256615 C34,12.1943014 33.8728512,12.5320046 33.6185537,12.8084122 C33.4276809,13.0235245 33.1736826,13.1461154 32.8876726,13.1770522 C32.4425023,13.1770522 32.1564924,13.0848199 31.9976312,12.8699968 C32.12478,12.5322937 32.1564924,12.1636537 32.1564924,11.7950138 C32.1564924,11.3344306 31.9976312,10.8735584 31.6799089,10.5358553 C31.3938989,10.1981522 30.9487286,9.98303991 30.5038575,9.98303991 C29.7092525,9.98303991 28.9780722,10.689383 28.3426276,12.1023583 C27.7065845,13.5150445 27.2934258,14.7126184 27.2934258,15.6956583 Z" id="Path" fill="#FFFFFF"></path>
                <path d="M36.5545244,14.8568496 L36.5545244,15.0647809 C37.5967096,14.9757874 38.6050411,14.6486385 39.4789074,14.1135583 C40.3192364,13.6081426 40.7897068,12.7758579 40.7226324,11.8839643 C40.7561696,11.3785486 40.5881671,10.8731329 40.2518456,10.4569905 C39.9158405,10.1298416 39.4450538,9.95157485 38.9410462,9.98123934 C38.1342544,9.95157485 37.3948534,10.3973817 37.0923856,11.0810642 C36.7225269,11.8249152 36.5545244,13.0733423 36.5545244,14.8568496 Z M45.4286016,14.5003161 C45.7984602,14.5003161 46,14.7678562 46,15.2732719 C46,16.46237 45.495676,17.6218037 44.5882725,18.5136973 C43.6470154,19.4945843 42.2352879,20 40.3192364,20 C38.403185,20 36.8905294,19.5541931 35.7141953,18.6326351 C34.5713984,17.7407415 34,16.403041 34,14.6195337 C34,12.8360264 34.504324,11.4980461 35.5126556,10.4874946 C36.4874499,9.50660755 37.933031,8.97124751 39.4118329,9.00119186 C40.5546298,9.00119186 41.3949589,9.26873194 41.8992829,9.80381212 C42.4371441,10.3388923 42.7060747,11.0225748 42.7060747,11.7065371 C42.7396119,12.8956352 42.101139,14.0251246 40.9918794,14.7387514 C39.8490825,15.5413717 38.4035014,15.9278495 36.6557688,15.9278495 C36.8237714,16.9680656 37.2271673,17.7410213 37.9333474,18.246437 C38.7062856,18.7815172 39.6475427,19.0790016 40.6223371,19.0193928 C41.7651339,19.0193928 42.8408564,18.6032504 43.6476482,17.8896236 C44.5553681,17.1463323 44.9923012,16.0465075 44.9923012,14.5898692 C45.0587429,14.559645 45.1932082,14.5003161 45.4286016,14.5003161 Z" id="Shape" fill="#FFFFFF" fill-rule="nonzero"></path>
                <path d="M54.7512927,0.979030388 C54.3971075,0.979030388 54.1398764,1.3454926 54.0753414,2.13906293 C54.0111093,2.93292068 53.9465743,4.61203616 53.9465743,7.26838421 C55.1375939,5.83328944 55.7168942,4.3984821 55.7168942,3.05507475 C55.6847782,1.65073407 55.3951281,0.979030388 54.7512927,0.979030388 Z M48.8283106,19.0230549 C49.4721459,19.0230549 50.0835623,18.6870593 50.6631655,18.0156431 C51.2745819,17.2827186 51.564535,16.3669942 51.532116,15.4509824 L51.532116,12.2755514 C51.564232,11.6038477 51.3712329,10.9321441 50.9206997,10.3825945 C50.5665145,9.95519892 50.0514462,9.71089078 49.4721459,9.71089078 C49.0537287,9.71089078 48.6028925,9.74135744 48.1844752,9.83304485 C47.830593,9.95519892 47.5406399,10.1382863 47.2831058,10.3825945 C46.7359215,10.9321441 46.4462713,12.183864 46.4462713,14.198975 C46.4462713,16.1836194 46.7038054,17.5267393 47.1864547,18.1679764 C47.5409429,18.6870593 48.1523592,19.0230549 48.8283106,19.0230549 Z M44,14.198975 C44,12.3060181 44.4829523,10.9321441 45.4164377,10.0465989 C46.3499232,9.16134117 47.6054779,8.73365821 49.1824958,8.7644123 C50.0193302,8.73394563 50.8564676,8.91703303 51.564535,9.34442857 L51.564535,5.9861976 C51.564535,3.90986582 51.7899531,2.38365849 52.2404864,1.43718001 C52.6913226,0.490701527 53.5281571,0.00208524482 54.7188737,0.00208524482 C55.330593,-0.0283814175 55.9420094,0.276860048 56.2640785,0.795942993 C56.6182637,1.31502594 56.8112628,2.0781296 56.8112628,3.05507475 C56.8112628,4.82587764 55.8453583,6.62743461 53.9141553,8.45917083 L53.9141553,16.2140861 C53.9141553,17.1605646 54.0750384,17.8627349 54.4292236,18.3513512 C54.7188737,18.8092134 55.233942,19.0839882 55.7811263,19.0535215 C56.3283106,19.0535215 56.8754949,18.717526 57.3905631,18.0765764 C57.9056314,17.4353394 58.1631655,16.3971735 58.1631655,14.9623661 C58.1631655,14.6571247 58.1631655,14.4128165 58.1310495,14.2297291 C58.1310495,14.1380417 58.2598166,14.0771084 58.5173507,14.0771084 C58.8391169,14.0771084 59,14.5045039 59,15.3900491 C59,16.7639231 58.6782338,17.8630223 58.0343985,18.7178134 C57.4872142,19.5116711 56.5216127,20 55.5235921,20 C53.6566212,20 52.4334855,19.2368963 51.8538822,17.6796475 C51.564232,18.3208845 51.0812798,18.9009008 50.5019795,19.358763 C49.9547952,19.7861585 49.2788438,19.9997126 48.5704735,19.9997126 C45.5127858,19.9695333 44,18.0461097 44,14.198975 Z" id="Shape" fill="#FFFFFF" fill-rule="nonzero"></path>
                <path d="M10,10 C9.70968722,9.33333333 9.38688126,9 9,9 C9.35469177,9.33411765 9.67719405,9.66666667 10,10 Z" id="Path" fill="#663366"></path>
                <path d="M14.5457967,14.2215736 C14.2883329,14.2215736 14.159601,14.2806966 14.159601,14.3696599 C14.159601,17.4803092 13.3551023,19.0504145 11.7139977,19.0504145 C11.1669628,19.0504145 10.6841424,18.7838034 10.4266786,18.3392656 C10.1050003,17.8651662 9.94385822,17.1838576 9.94385822,16.2657783 L9.94385822,14.6956729 C9.65428716,14.5771481 8.62443191,14.1920121 7.56246941,13.8068761 L7.56246941,15.791679 C7.59457666,16.6506354 7.27289835,17.4803092 6.62923882,18.1320563 C6.01798944,18.7244015 5.43854441,19.020853 4.92361678,19.020853 C4.47320656,19.0504145 4.05490359,18.9318897 3.66870787,18.7542419 C3.34702956,18.5765941 3.08956575,18.1323351 2.83210193,17.4211862 C2.54253087,16.4732664 2.44590622,15.4659448 2.47801347,14.4884636 C2.47801347,13.6886302 2.54222797,13.0073216 2.63885263,12.4442589 C1.67351478,12.2370497 0.772391437,12.059123 0.386195718,12 C0.160839158,12.711149 0,13.5109824 0,14.4884636 C0,18.1618966 1.51237272,19.9986131 4.56952832,19.9986131 C5.27740235,19.9986131 5.95316913,19.7914039 6.53231126,19.4358294 C7.11145339,19.0211319 7.59427376,18.4879096 7.88384483,17.865724 C8.46298696,19.2877431 9.62157411,19.9986131 11.3593034,19.9986131 C12.4212659,20.0281746 13.4190139,19.5839157 14.0302633,18.7840823 C14.6739228,17.9842488 14.995904,16.8882428 14.995904,15.5253467 C15.0283142,14.6362711 14.867475,14.2215736 14.5457967,14.2215736 Z" id="Path" fill="#FFFFFF"></path>
                <path d="M9.9017616,14.9919002 C9.9017616,14.9919002 6.44483037,13.5225633 5.23938233,13.1710171 C4.03423282,12.8197716 0.196382395,11.9891722 0.196382395,11.9891722 C0.0695088393,11.9572955 -0.0257209588,11.7976111 0.00622132454,11.6698035 L2.00425593,7.19773861 C2.03589969,7.06993096 2.19471553,6.97430077 2.32129056,7.0061775 C3.78018718,7.2617928 5.23908381,7.61303829 6.66633667,8.06021471 C8.06194578,8.50739112 9.45725637,9.05049845 10.8212217,9.65735924 C10.9480953,9.72111271 11.0433251,9.84922108 10.979739,10.0086047 C10.6943482,11.1904496 10.2184977,14.8322158 10.2184977,14.8322158 C10.1871525,14.9597227 10.0286352,15.0237769 9.9017616,14.9919002 Z" id="Path" fill="#FFFFFF"></path>
                <path d="M9.78036098,11.9913985 C9.78036098,11.9913985 7.05838721,10.8978103 6.09080837,10.5995306 C5.12294487,10.3012509 2.12883065,9.40641177 2.12883065,9.40641177 C2.03802228,9.37333891 1.97767315,9.27380834 2.00784772,9.14120492 C2.03802228,9.04167435 2.12883065,8.97552864 2.24981359,9.00860149 C2.24981359,9.00860149 5.2439278,9.87036774 6.18161674,10.1686474 C7.11902101,10.4669271 9.87116935,11.5935882 9.87116935,11.5935882 C9.96197772,11.6266611 10.0223269,11.7261917 9.99215228,11.8587951 C9.99215228,11.9583257 9.87116935,12.0244714 9.78036098,11.9913985 Z" id="Path" fill="#F9B238"></path>
                <path d="M9.73403565,12.9918722 C9.73403565,12.9918722 6.67515287,11.9239766 5.58046501,11.5786549 C4.48577715,11.2330375 1.13715972,10.3851071 1.13715972,10.3851071 C1.04048047,10.353768 0.97622969,10.2594549 1.00835508,10.1338028 C1.04048047,10.0394897 1.16928511,9.97681146 1.26596435,10.0081506 C1.26596435,10.0081506 4.61458179,10.856081 5.70926965,11.2016984 C6.80395751,11.5470201 9.86284028,12.6149157 9.86284028,12.6149157 C9.95951953,12.6462549 10.0237703,12.7405679 9.99164492,12.8662201 C9.95921646,12.9602375 9.83041182,13.0232114 9.73403565,12.9918722 Z" id="Path" fill="#F9B238"></path>
            </g>
        </g>
    </g>
</svg>