<?xml version="1.0" encoding="UTF-8"?>
<svg width="182px" height="58px" viewBox="0 0 182 58" version="1.1" xmlns="http://www.w3.org/2000/svg" xmlns:xlink="http://www.w3.org/1999/xlink">
    <!-- Generator: Sketch 52.2 (67145) - http://www.bohemiancoding.com/sketch -->
    <title>alfred-logo-footer</title>
    <desc>Created with Sketch.</desc>
    <g id="Page-V5" stroke="none" stroke-width="1" fill="none" fill-rule="evenodd">
        <g id="Desktop---platba---V5" transform="translate(-103.000000, -1602.000000)">
            <g id="alfred-logo-footer" transform="translate(97.000000, 1602.000000)">
                <path d="M-2.55795385e-13,18 L6.05812295,18 C10.0824275,18 13.7146328,20.4123202 15.2754049,24.1216352 L21.7322785,39.4669744 C23.9078587,44.637436 28.9708361,48 34.5803657,48 L38.7821942,48 C42.1005414,48 45.366745,48.8256651 48.2864612,50.402588 L57.9048208,55.597412 C60.8245369,57.1743349 64.0907405,58 67.4090878,58 L101.856428,58 C104.540407,58 107.196931,57.4597733 109.667736,56.4115036 L125.749782,49.5884964 C128.220587,48.5402267 130.87711,48 133.56109,48 L157.761266,48 C164.36659,48 170.213679,43.7284885 172.222028,37.4358865 L175.51397,27.1214999 C177.248063,21.6882027 182.296685,18 188,18 L-2.55795385e-13,18 Z" id="Path-10" fill="#FFFFFF"></path>
                <g id="Group-Copy-3" transform="translate(32.000000, 0.000000)">
                    <g id="logoAfred-Copy-4" transform="translate(40.325737, 0.000000)">
                        <path d="M27.935717,5.35347235 C27.935717,2.8024715 27.3429913,1.52697107 26.1575397,1.52697107 C25.8837098,1.52697107 25.6558044,1.62487335 25.4733942,1.87009085 C25.2454888,2.36052584 25.1085739,2.90037378 25.0630786,3.43975991 C24.8351732,4.76421147 24.7437535,8.14922889 24.7437535,13.6922526 C26.8416852,12.0246813 27.935717,9.2774141 27.935717,5.35347235 Z M32.1311512,22.6202938 C32.586962,22.6202938 32.8152967,23.3069952 32.8152967,24.7298108 C32.8607919,26.5941103 32.3135614,28.457948 31.2650247,29.9786659 C30.3529738,31.3525304 28.8936924,32.1860852 27.2979252,32.1860852 C25.2914132,32.1860852 23.8321318,31.548335 22.8290904,30.2728346 C21.8256198,28.9973341 21.369809,27.1824476 21.369809,24.8766642 L21.369809,9.91562611 C21.369809,6.48165755 21.6891341,3.98006965 22.3273551,2.41040059 C22.8745856,0.889682664 24.2879426,-0.091187323 25.8382146,0.00671495442 C28.2550422,0.00671495442 29.4864182,1.77265037 29.4864182,5.35393415 C29.4864182,8.00283728 28.9846829,10.1613054 28.0271367,11.7799256 C27.2065055,13.2516924 26.0665492,14.4777799 24.6986874,15.4096987 L24.6986874,26.0547242 C24.6986874,27.5754421 24.9725173,28.7036273 25.5193187,29.4886927 C26.0665492,30.2243452 26.8876096,30.6658291 27.7537361,30.6168779 C28.7112822,30.6168779 29.5778379,30.0280789 30.3984691,28.8019914 C31.2191003,27.5754421 31.6298451,25.6132403 31.6298451,22.8664349 C31.6294159,22.6697068 31.8118261,22.6202938 32.1311512,22.6202938 Z" id="Shape" fill="#663366" fill-rule="nonzero"></path>
                        <path d="M37.7866115,5.3129497 C37.7866115,2.7814768 37.1366008,1.51574035 35.8365794,1.51574035 C35.5362849,1.51574035 35.236461,1.61289319 35.0364215,1.85623354 C34.7361269,2.39194893 34.5864503,2.97578247 34.5864503,3.56007428 C34.3864108,5.1177275 34.2367342,8.47683256 34.1863713,13.6364729 C36.5863745,11.9821251 37.7866115,9.20685362 37.7866115,5.3129497 Z M40.4370171,15.9736402 L34.1364791,15.9250637 L34.1364791,46.2037526 C33.7862923,46.5932805 33.2365367,46.7880444 32.7362027,46.7390098 C32.1360842,46.7875862 31.5359657,46.5442458 31.1358867,46.154718 C30.6859155,45.6680372 30.485876,45.035169 30.5357682,44.3537244 L30.5357682,9.74256901 C30.5357682,6.38346395 30.885955,3.94960215 31.6362208,2.39194893 C32.2862315,0.882872129 33.8366552,-0.0904892826 35.5367555,0.00666355134 C38.1871611,0.00666355134 39.5370747,1.75908071 39.5370747,5.3129497 C39.5370747,9.35304114 38.1367983,12.4688058 35.336716,14.5617162 L39.1369957,14.5617162 C39.5370747,14.5131398 39.9371537,14.6102926 40.2374483,14.8540912 C40.3871249,15.1945844 40.4869093,15.5841123 40.4370171,15.9736402 Z" id="Shape" fill="#663366" fill-rule="nonzero"></path>
                        <path d="M41.6610925,24.9892068 L41.6610925,31.6135879 C41.3213352,32.0244997 40.7879528,32.2299556 40.30252,32.178229 C39.7202747,32.2294722 39.1380293,31.9727732 38.7498657,31.5106183 C38.3132959,30.9972203 38.1192141,30.3296095 38.1676204,29.6107556 L38.1676204,14.4616473 C38.5073777,14.0507355 39.0407601,13.7940365 39.5261929,13.8970062 C40.011169,13.8457631 40.5450081,14.0512189 40.9331717,14.3591611 C41.3697415,14.7188297 41.6126862,15.2322277 41.7094988,15.7456257 L41.7094988,18.9294668 C43.019665,15.4889267 44.8148073,13.7940365 47.1433321,13.7940365 C48.7927989,13.7940365 50.0056959,14.2561914 50.7336167,15.1805012 C51.5099439,16.1048109 51.8981075,17.2858197 51.8981075,18.518555 C51.8981075,19.1349227 51.7040257,19.6995638 51.3158621,20.1617187 C51.0245111,20.5213873 50.6368042,20.7263598 50.2002343,20.7780863 C49.5207198,20.7780863 49.0841499,20.6238735 48.8416619,20.2646883 C49.0357436,19.7000472 49.0841499,19.0836795 49.0841499,18.4673119 C49.0841499,17.6972149 48.8416619,16.9266345 48.3566857,16.3619934 C47.9201159,15.7973522 47.2406013,15.4376836 46.5615434,15.4376836 C45.3486464,15.4376836 44.232562,16.6186924 43.2626097,18.9811933 C42.2917441,21.3432108 41.6610925,23.3455597 41.6610925,24.9892068 Z" id="Path" fill="#663366"></path>
                        <path d="M55.7973716,23.586715 L55.7973716,23.934377 C57.3881786,23.7855795 58.927311,23.2385851 60.2611935,22.3439287 C61.5438843,21.4988714 62.2620173,20.1072876 62.1596338,18.6160376 C62.2108255,17.7709803 61.954384,16.925923 61.4410179,16.2301311 C60.9281347,15.6831367 60.2095188,15.3850739 59.4401941,15.434673 C58.208695,15.3850739 57.0800624,16.1304649 56.6183709,17.273585 C56.0538131,18.5173072 55.7973716,20.6046829 55.7973716,23.586715 Z M69.3428954,22.9905893 C69.9074533,22.9905893 70.2150866,23.4379175 70.2150866,24.2829748 C70.2150866,26.2711522 69.4452789,28.2097304 68.0602047,29.7009805 C66.6234557,31.3410279 64.4685738,32.1860852 61.5438843,32.1860852 C58.6191947,32.1860852 56.3102547,31.4406942 54.5146808,29.899845 C52.7702986,28.408595 51.8981075,26.1719539 51.8981075,23.1899218 C51.8981075,20.2078897 52.6679151,17.9707807 54.2070475,16.2811341 C55.6949881,14.6410866 57.9015447,13.7459622 60.15881,13.7960293 C61.9031922,13.7960293 63.185883,14.2433575 63.9556907,15.1380139 C64.7766901,16.0326704 65.1871898,17.1757905 65.1871898,18.3193785 C65.2383815,20.3075559 64.2638069,22.196067 62.5706164,23.3892542 C60.8262342,24.7312389 58.6196777,25.3774316 55.9519126,25.3774316 C56.2083542,27.1166774 56.8241037,28.4090629 57.9020276,29.2541202 C59.081852,30.1487766 60.5186009,30.6461719 62.0065416,30.5465056 C63.7509238,30.5465056 65.3929226,29.8507137 66.6244216,28.6575266 C68.0099788,27.4147402 68.6769201,25.5758282 68.6769201,23.1403226 C68.7783376,23.0897876 68.9835875,22.9905893 69.3428954,22.9905893 Z" id="Shape" fill="#663366" fill-rule="nonzero"></path>
                        <path d="M84.3363978,1.57555777 C83.7957643,1.57555777 83.4031228,2.16530697 83.3046156,3.44240308 C83.2065708,4.71996174 83.1080636,7.42216944 83.1080636,11.6970417 C84.9260538,9.38753755 85.8103064,7.07849598 85.8103064,4.9165448 C85.761284,2.65653336 85.3191577,1.57555777 84.3363978,1.57555777 Z M75.2954695,30.6138832 C76.2782294,30.6138832 77.2115044,30.0731642 78.0962195,28.9926511 C79.0294945,27.8131527 79.4720833,26.3394735 79.4225985,24.8653318 L79.4225985,19.7550972 C79.4716209,18.6741216 79.1770241,17.593146 78.4893235,16.7087535 C77.9486899,16.020944 77.162482,15.6277779 76.2782294,15.6277779 C75.6395511,15.6277779 74.9513879,15.676808 74.3127096,15.824361 C73.7725385,16.020944 73.3299497,16.3155874 72.9368458,16.7087535 C72.1016155,17.593146 71.6594892,19.6075443 71.6594892,22.850471 C71.6594892,26.0443677 72.0525932,28.2058563 72.7893162,29.2378018 C73.3304122,30.0731642 74.2636872,30.6138832 75.2954695,30.6138832 Z M67.9254642,22.850471 C67.9254642,19.8041273 68.6626497,17.593146 70.0875359,16.1680344 C71.5124221,14.7433854 73.4289194,14.0551134 75.836103,14.104606 C77.1134596,14.0555759 78.3912787,14.3502192 79.4720833,15.0380287 L79.4720833,9.6336133 C79.4720833,6.29216372 79.8161649,3.83603176 80.5038656,2.31285991 C81.1920287,0.789688058 82.4693853,0.00335579338 84.286913,0.00335579338 C85.2206505,-0.0456743361 86.1539255,0.445552055 86.6455367,1.28091445 C87.1861702,2.11627684 87.480767,3.34434282 87.480767,4.9165448 C87.480767,7.76630544 86.0063959,10.6655588 83.0585788,13.6133797 L83.0585788,26.0933978 C83.0585788,27.6165696 83.3041531,28.7465754 83.8447867,29.5329076 C84.286913,30.2697472 85.0731209,30.7119435 85.9083512,30.6629134 C86.7435814,30.6629134 87.5788117,30.1221943 88.3650196,29.0907114 C89.1512275,28.0587659 89.5443314,26.3880411 89.5443314,24.0789996 C89.5443314,23.5877732 89.5443314,23.194607 89.4953091,22.8999637 C89.4953091,22.7524108 89.691861,22.6543505 90.084965,22.6543505 C90.5761137,22.6543505 90.821688,23.34216 90.821688,24.7672716 C90.821688,26.9782529 90.3305393,28.7470379 89.3477795,30.1226568 C88.5125492,31.4002155 87.0386406,32.1860852 85.5152472,32.1860852 C82.6654748,32.1860852 80.7984623,30.9580192 79.9137472,28.451932 C79.4716209,29.4838775 78.7344353,30.4173002 77.8501827,31.1541397 C77.0149524,31.8419492 75.9831702,32.1856227 74.9019031,32.1856227 C70.234603,32.1370551 67.9254642,29.0416812 67.9254642,22.850471 Z" id="Shape" fill="#663366" fill-rule="nonzero"></path>
                        <path d="M22.2029212,22.7761337 C21.8099246,22.7761337 21.6134263,22.8724132 21.6134263,23.0172867 C21.6134263,28.0828628 20.3854275,30.6397207 17.8804209,30.6397207 C17.0454187,30.6397207 16.3084344,30.2055544 15.9154378,29.4816412 C15.4244232,28.7095882 15.1784536,27.6001026 15.1784536,26.1050446 L15.1784536,23.5481867 C14.736448,23.3551734 13.1644616,22.7279939 11.5434662,22.1008143 L11.5434662,25.3329916 C11.5924752,26.73177 11.1014606,28.0828628 10.1189691,29.1442086 C9.18594889,30.1088207 8.30147536,30.5915809 7.51548215,30.5915809 C6.82796926,30.6397207 6.18946536,30.4467075 5.59997046,30.1574147 C5.10895587,29.8681219 4.71595927,29.1446628 4.32296266,27.9865832 C3.88095707,26.4429313 3.73346775,24.8025458 3.78247674,23.2107541 C3.78247674,21.9082552 3.88049472,20.7987696 4.02798403,19.8818431 C2.55447794,19.5444106 1.17898982,19.2546636 0.589494908,19.158384 C0.245507291,20.3164636 0,21.6189624 0,23.2107541 C0,29.1928025 2.3085083,32.1838268 6.97499623,32.1838268 C8.05550572,32.1838268 9.08700622,31.8463942 9.97101741,31.2673544 C10.8550286,30.5920351 11.5920128,29.7237025 12.0340184,28.7104965 C12.9180296,31.0262014 14.6865143,32.1838268 17.3390102,32.1838268 C18.9600056,32.2319665 20.4829831,31.5085074 21.4160033,30.2060086 C22.3984948,28.9035097 22.8899717,27.1187048 22.8899717,24.8992795 C22.939443,23.451453 22.6939358,22.7761337 22.2029212,22.7761337 Z" id="Path" fill="#663366"></path>
                        <path d="M15.8774042,22.9784224 C15.8774042,22.9784224 10.6006927,20.8671634 8.76067885,20.3620341 C6.92112065,19.8573369 1.06296848,18.6638662 1.06296848,18.6638662 C0.869306792,18.6180632 0.723946607,18.3886161 0.772703785,18.204972 L3.82253363,11.7791568 C3.87083513,11.5955127 4.113254,11.4581037 4.30646001,11.5039067 C6.53334159,11.871195 8.76022318,12.3758922 10.9388033,13.0184305 C13.0690818,13.6609688 15.1989047,14.4413482 17.2808818,15.3133336 C17.4745435,15.4049396 17.6199037,15.5890158 17.522845,15.8180308 C17.0872201,17.5161986 16.3608749,22.7489753 16.3608749,22.7489753 C16.313029,22.9321873 16.0710658,23.0242254 15.8774042,22.9784224 Z" id="Path" fill="#663366"></path>
                        <path d="M15.6711427,18.3788654 C15.6711427,18.3788654 11.2566024,16.7027548 9.68736774,16.2455902 C8.11767136,15.7884256 3.26176945,14.4169319 3.26176945,14.4169319 C3.11449499,14.3662421 3.01661981,14.2136945 3.0655574,14.0104572 C3.11449499,13.8579096 3.26176945,13.75653 3.4579815,13.8072198 C3.4579815,13.8072198 8.31388341,15.1280237 9.83464219,15.5851882 C11.3549393,16.0423528 15.8184171,17.7691533 15.8184171,17.7691533 C15.9656916,17.8198431 16.0635668,17.9723907 16.0146292,18.175628 C16.0146292,18.3281756 15.8184171,18.4295552 15.6711427,18.3788654 Z" id="Path" fill="#F9B238"></path>
                        <path d="M14.8581773,20.6785976 C14.8581773,20.6785976 10.189053,19.0418652 8.51810508,18.5126007 C6.8471572,17.9828831 1.73577756,16.683285 1.73577756,16.683285 C1.58820492,16.6352524 1.49013157,16.4907016 1.53916825,16.2981182 C1.58820492,16.1535673 1.78481424,16.0575022 1.93238688,16.1055348 C1.93238688,16.1055348 7.04376651,17.4051329 8.7147144,17.9348505 C10.3856623,18.464115 15.0547866,20.1008474 15.0547866,20.1008474 C15.2023593,20.14888 15.3004326,20.2934308 15.2513959,20.4860142 C15.2018966,20.6301119 15.0052873,20.7266302 14.8581773,20.6785976 Z" id="Path" fill="#F9B238"></path>
                    </g>
                    <path d="M16.4533543,31.5570075 C16.1070728,31.9375813 15.8107382,32.1180449 15.183919,32.0983983 C13.8210128,32.0983983 13.8661357,29.9462784 13.7975616,28.3050592 L13.7973857,20.9772139 C13.6733912,18.071506 12.595535,16.1877144 10.9442486,15.7062705 C9.01613192,15.1441148 7.11338699,16.9936554 7.13070606,19.1427951 C7.13607619,19.8091798 7.13876125,23.9472506 7.13876125,31.5570075 C6.79247975,31.9375813 6.49614517,32.1180449 5.86932601,32.0983983 C4.50930496,32.0983983 4.55442661,29.9462784 4.48296502,28.3050592 C4.47589524,23.9132532 4.47148575,21.6908932 4.46973655,21.6379791 C4.35059882,18.0340066 4.04171055,15.7423431 3.24440675,15.5160548 C1.52222155,15.0272694 2.34184512,18.3920487 0.852343581,18.3920487 C-0.63715796,18.3920487 -0.140919288,13.8857492 2.95076232,13.8857492 C2.98526548,13.8857492 3.78038639,13.8860766 3.05353613,13.8867315 L3.24440675,13.8857492 C4.84871291,13.8857492 5.60896393,14.7803144 6.26408127,16.7421639 C6.3897919,16.2635225 6.66159469,15.9720902 6.79955538,15.7797174 C7.11061365,15.345977 7.83524804,14.5898676 9.15409253,14.1808195 C10.472937,13.7717714 12.1051433,13.8920368 13.0193476,14.3299935 C13.6425167,14.6285275 14.8203674,15.4706654 15.6282548,17.3186999 C15.6736547,16.5618538 15.9497203,16.2355966 16.0948389,15.9720902 C16.41975,15.3821165 17.1582784,14.5898676 18.4771229,14.1808195 C19.7959673,13.7717714 21.4281736,13.8920368 22.342378,14.3299935 C23.2529819,14.7662254 25.754122,16.3631833 25.7738088,20.5632747 L25.767228,31.5570075 C25.4209465,31.9375813 25.1246119,32.1180449 24.4977928,32.0983983 C23.1363669,32.0983983 23.181565,29.9462784 23.1116611,28.3050592 L23.1204161,20.9772139 C22.9964215,18.071506 21.7283496,15.9974987 20.0770632,15.5160548 C18.1489465,14.9538991 16.3573658,16.9960573 16.4507784,19.1427951 C16.4537681,19.2115001 16.4546267,23.3495709 16.4533543,31.5570075 Z" id="Path-Copy-6" fill="#BEBEBE"></path>
                    <path d="M31.9565786,32.2327007 C27.9882533,32.2327007 26.9738319,29.4821313 27.0111571,23.9809925 L27.018131,16.3585538 L27.018131,14.4285866 C27.3644125,14.0480128 27.8509628,13.8675492 28.477782,13.8871959 C29.839964,13.8871959 29.6045888,16.6131393 29.6738138,18.2607113 L29.6751731,18.2607113 L29.6751731,23.9671835 C29.6746321,23.9717777 29.6746338,23.9763807 29.6746338,23.9809925 C29.6746338,27.3207456 29.6746338,30.6604987 32.9471572,30.6604987 C33.8653629,30.6604987 34.7122546,30.0334988 35.4878321,28.7794988 L35.4878321,14.4285866 C35.8341136,14.0480128 36.3206639,13.8675492 36.9474831,13.8871959 C38.3042696,13.8871959 38.0686101,14.7422127 38.1426619,16.3490247 L38.1477417,37.8529327 C38.1477417,46.1877339 34.2651833,46.5937339 32.9471572,46.580693 C30.8393968,46.5598381 29.8229601,46.148217 28.9054709,44.9207367 C27.2878107,42.7565193 28.3148199,40.6101224 29.1724519,39.8100668 C30.0300839,39.0100112 31.4213522,38.5920668 32.4026215,39.0236969 C32.9766383,39.2761891 33.4268713,39.818428 33.2456968,40.5198808 C33.0911241,41.1183395 32.4026215,41.4020819 31.771601,41.4020819 C30.5436222,41.4020819 29.6443788,41.872007 29.6443788,42.9145586 C29.6443788,44.0003327 30.5550341,45.1336891 32.4026215,44.9207367 C34.1413646,44.7203296 35.4906997,42.5948754 35.4906997,39.3837022 L35.4906997,36.2750935 L35.4878321,36.2750935 L35.4878321,30.9688432 C34.4920048,31.8114142 33.3149203,32.2327007 31.9565786,32.2327007 Z" id="Path-Copy-5" fill="#BEBEBE"></path>
                </g>
            </g>
        </g>
    </g>
</svg>