<?xml version="1.0" encoding="UTF-8"?>
<svg width="150px" height="51px" viewBox="0 0 150 51" version="1.1" xmlns="http://www.w3.org/2000/svg" xmlns:xlink="http://www.w3.org/1999/xlink">
    <!-- Generator: Sketch 52.2 (67145) - http://www.bohemiancoding.com/sketch -->
    <title>applestore-icon</title>
    <desc>Created with Sketch.</desc>
    <g id="Page-V5" stroke="none" stroke-width="1" fill="none" fill-rule="evenodd">
        <g id="Desktop--zamkovy-system---V5" transform="translate(-920.000000, -1694.000000)">
            <g id="applestore-icon" transform="translate(920.000000, 1694.000000)">
                <rect id="bg" fill="#000000" x="0" y="0" width="150" height="50.8928571" rx="3"></rect>
                <path d="M58.0929233,37.2098571 L55.5395503,37.2098571 L54.140873,32.8122321 L49.2792328,32.8122321 L47.9468915,37.2098571 L45.4609788,37.2098571 L50.2776455,22.2383571 L53.2526455,22.2383571 L58.0929233,37.2098571 L58.0929233,37.2098571 Z M53.719246,30.9672321 L49.7019841,30.9672321 L50.9443783,27.0578571 C51.2704365,25.8147321 51.507672,24.8742321 51.6549603,24.2374821 L51.6999339,24.2374821 C52.0698413,25.7179821 52.3205688,26.6584821 52.4543651,27.0578571 L53.719246,30.9672321 Z M70.4797619,31.6793571 C70.4797619,33.5153571 69.9839286,34.9666071 68.9922619,36.0319821 C68.1040344,36.9803571 67.0010582,37.4539821 65.6844577,37.4539821 C64.2632937,37.4539821 63.2423942,36.9432321 62.6206349,35.9217321 L62.5756614,35.9217321 L62.5756614,41.6086071 L60.1785714,41.6086071 L60.1785714,29.9682321 C60.1785714,28.8139821 60.1482143,27.6293571 60.0897487,26.4143571 L62.1978836,26.4143571 L62.3316799,28.1254821 L62.3766534,28.1254821 C63.1760582,26.8362321 64.3892196,26.1927321 66.0172619,26.1927321 C67.2900132,26.1927321 68.3525132,26.6956071 69.2025132,27.7024821 C70.0547619,28.7104821 70.4797619,30.0357321 70.4797619,31.6793571 Z M68.0376984,31.7671071 C68.0376984,30.7163571 67.8015873,29.8501071 67.3271164,29.1683571 C66.8087963,28.4573571 66.1128307,28.1018571 65.2403439,28.1018571 C64.6489418,28.1018571 64.1115079,28.2998571 63.6314153,28.6902321 C63.1501984,29.0839821 62.8353836,29.5981071 62.6880952,30.2348571 C62.6138889,30.5318571 62.5767857,30.7748571 62.5767857,30.9661071 L62.5767857,32.7661071 C62.5767857,33.5513571 62.8173942,34.2139821 63.2986111,34.7551071 C63.779828,35.2962321 64.4049603,35.5662321 65.1740079,35.5662321 C66.0768519,35.5662321 66.7795635,35.2174821 67.2821429,34.5222321 C67.7858466,33.8258571 68.0376984,32.9078571 68.0376984,31.7671071 Z M82.8890873,31.6793571 C82.8890873,33.5153571 82.393254,34.9666071 81.400463,36.0319821 C80.5133598,36.9803571 79.4103836,37.4539821 78.0937831,37.4539821 C76.672619,37.4539821 75.6517196,36.9432321 75.0310847,35.9217321 L74.9861111,35.9217321 L74.9861111,41.6086071 L72.5890212,41.6086071 L72.5890212,29.9682321 C72.5890212,28.8139821 72.558664,27.6293571 72.5001984,26.4143571 L74.6083333,26.4143571 L74.7421296,28.1254821 L74.7871032,28.1254821 C75.5853836,26.8362321 76.798545,26.1927321 78.4277116,26.1927321 C79.6993386,26.1927321 80.7618386,26.6956071 81.6140873,27.7024821 C82.462963,28.7104821 82.8890873,30.0357321 82.8890873,31.6793571 Z M80.4470238,31.7671071 C80.4470238,30.7163571 80.2097884,29.8501071 79.7353175,29.1683571 C79.2169974,28.4573571 78.5232804,28.1018571 77.6496693,28.1018571 C77.0571429,28.1018571 76.5208333,28.2998571 76.0396164,28.6902321 C75.5583995,29.0839821 75.244709,29.5981071 75.0974206,30.2348571 C75.0243386,30.5318571 74.9861111,30.7748571 74.9861111,30.9661071 L74.9861111,32.7661071 C74.9861111,33.5513571 75.2267196,34.2139821 75.7056878,34.7551071 C76.1869048,35.2951071 76.812037,35.5662321 77.5833333,35.5662321 C78.4861772,35.5662321 79.1888889,35.2174821 79.6914683,34.5222321 C80.195172,33.8258571 80.4470238,32.9078571 80.4470238,31.7671071 Z M96.7634259,33.0113571 C96.7634259,34.2848571 96.3215608,35.3209821 95.4344577,36.1208571 C94.4596561,36.9949821 93.1025794,37.4314821 91.3587302,37.4314821 C89.7486772,37.4314821 88.4579365,37.1209821 87.4808862,36.4988571 L88.0363095,34.4997321 C89.0886905,35.1364821 90.2433862,35.4559821 91.5015212,35.4559821 C92.4043651,35.4559821 93.1070767,35.2512321 93.6119048,34.8439821 C94.1144841,34.4367321 94.3652116,33.8899821 94.3652116,33.2082321 C94.3652116,32.6007321 94.1583333,32.0888571 93.7434524,31.6737321 C93.3308201,31.2586071 92.6416005,30.8727321 91.6791667,30.5161071 C89.0594577,29.5384821 87.7507275,28.1063571 87.7507275,26.2231071 C87.7507275,24.9923571 88.2094577,23.9832321 89.1280423,23.1979821 C90.043254,22.4116071 91.2642857,22.0189821 92.7911376,22.0189821 C94.1527116,22.0189821 95.2837963,22.2563571 96.1866402,22.7299821 L95.5873677,24.6852321 C94.7441138,24.2262321 93.7906746,23.9967321 92.7236772,23.9967321 C91.8804233,23.9967321 91.2215608,24.2048571 90.7493386,24.6188571 C90.3501984,24.9889821 90.1500661,25.4401071 90.1500661,25.9744821 C90.1500661,26.5662321 90.3783069,27.0556071 90.837037,27.4403571 C91.2361772,27.7958571 91.9613757,28.1806071 93.0137566,28.5957321 C94.3011243,29.1143571 95.2466931,29.7207321 95.8549603,30.4159821 C96.4609788,31.1089821 96.7634259,31.9763571 96.7634259,33.0113571 Z M104.688889,28.2143571 L102.046693,28.2143571 L102.046693,33.4557321 C102.046693,34.7888571 102.512169,35.4548571 103.44537,35.4548571 C103.873743,35.4548571 104.229034,35.4177321 104.510119,35.3434821 L104.576455,37.1648571 C104.104233,37.3414821 103.482474,37.4303571 102.712302,37.4303571 C101.765608,37.4303571 101.025794,37.1412321 100.491733,36.5641071 C99.9599206,35.9858571 99.692328,35.0161071 99.692328,33.6537321 L99.692328,28.2121071 L98.118254,28.2121071 L98.118254,26.4121071 L99.692328,26.4121071 L99.692328,24.4354821 L102.046693,23.7244821 L102.046693,26.4121071 L104.688889,26.4121071 L104.688889,28.2143571 Z M116.610251,31.7232321 C116.610251,33.3826071 116.13578,34.7449821 115.189087,35.8103571 C114.196296,36.9072321 112.878571,37.4539821 111.235913,37.4539821 C109.652844,37.4539821 108.39246,36.9286071 107.452513,35.8778571 C106.512566,34.8271071 106.042593,33.5007321 106.042593,31.9021071 C106.042593,30.2292321 106.526058,28.8589821 107.496362,27.7936071 C108.464418,26.7271071 109.770899,26.1938571 111.413558,26.1938571 C112.996627,26.1938571 114.270503,26.7192321 115.231812,27.7711071 C116.151521,28.7914821 116.610251,30.1088571 116.610251,31.7232321 Z M114.123214,31.8008571 C114.123214,30.8052321 113.910714,29.9513571 113.480093,29.2392321 C112.977513,28.3774821 112.259061,27.9477321 111.328108,27.9477321 C110.36455,27.9477321 109.632606,28.3786071 109.130026,29.2392321 C108.699405,29.9524821 108.486905,30.8198571 108.486905,31.8458571 C108.486905,32.8414821 108.699405,33.6953571 109.130026,34.4063571 C109.648347,35.2681071 110.372421,35.6978571 111.306746,35.6978571 C112.221958,35.6978571 112.94041,35.2591071 113.45873,34.3838571 C113.900595,33.6582321 114.123214,32.7953571 114.123214,31.8008571 Z M124.401918,28.5237321 C124.164683,28.4798571 123.911706,28.4573571 123.646362,28.4573571 C122.803108,28.4573571 122.150992,28.7757321 121.692262,29.4136071 C121.293122,29.9761071 121.092989,30.6871071 121.092989,31.5454821 L121.092989,37.2098571 L118.697024,37.2098571 L118.719511,29.8141071 C118.719511,28.5698571 118.689153,27.4369821 118.629563,26.4154821 L120.71746,26.4154821 L120.805159,28.4809821 L120.871495,28.4809821 C121.124471,27.7711071 121.523611,27.1996071 122.07004,26.7709821 C122.604101,26.3851071 123.180886,26.1927321 123.802646,26.1927321 C124.02414,26.1927321 124.224272,26.2084821 124.401918,26.2366071 L124.401918,28.5237321 Z M135.122487,31.3013571 C135.122487,31.7311071 135.094378,32.0933571 135.034788,32.3892321 L127.843519,32.3892321 C127.871627,33.4557321 128.219048,34.2713571 128.886905,34.8338571 C129.492923,35.3367321 130.276587,35.5887321 131.239021,35.5887321 C132.30377,35.5887321 133.275198,35.4188571 134.14881,35.0779821 L134.524339,36.7429821 C133.503439,37.1884821 132.298148,37.4101071 130.907341,37.4101071 C129.234325,37.4101071 127.921098,36.9173571 126.96541,35.9329821 C126.011971,34.9486071 125.534127,33.6267321 125.534127,31.9684821 C125.534127,30.3406071 125.978241,28.9849821 126.867593,27.9038571 C127.798545,26.7496071 129.05668,26.1724821 130.639749,26.1724821 C132.194709,26.1724821 133.371892,26.7496071 134.171296,27.9038571 C134.804299,28.8207321 135.122487,29.9547321 135.122487,31.3013571 Z M132.836706,30.6792321 C132.852447,29.9682321 132.696164,29.3539821 132.37123,28.8353571 C131.956349,28.1682321 131.318849,27.8352321 130.460979,27.8352321 C129.677315,27.8352321 129.039815,28.1603571 128.552976,28.8128571 C128.153836,29.3314821 127.916601,29.9536071 127.843519,30.6781071 L132.836706,30.6781071 L132.836706,30.6792321 Z" id="app-store" fill="#FFFFFF"></path>
                <path d="M52.9265873,13.0279821 C52.9265873,14.3521071 52.5296958,15.3488571 51.737037,16.0182321 C51.0028439,16.6358571 49.9594577,16.9452321 48.6080026,16.9452321 C47.9378968,16.9452321 47.3644841,16.9159821 46.8843915,16.8574821 L46.8843915,9.62260714 C47.5106481,9.52135714 48.1852513,9.46960714 48.9138228,9.46960714 C50.2011905,9.46960714 51.1714947,9.74973214 51.8258598,10.3099821 C52.5589286,10.9433571 52.9265873,11.8489821 52.9265873,13.0279821 Z M51.6841931,13.0606071 C51.6841931,12.2022321 51.4570767,11.5441071 51.0028439,11.0851071 C50.5486111,10.6272321 49.8852513,10.3977321 49.0116402,10.3977321 C48.6406085,10.3977321 48.3246693,10.4224821 48.0626984,10.4742321 L48.0626984,15.9743571 C48.2077381,15.9968571 48.473082,16.0069821 48.8587302,16.0069821 C49.7604497,16.0069821 50.4564153,15.7561071 50.946627,15.2543571 C51.4368386,14.7526071 51.6841931,14.0213571 51.6841931,13.0606071 Z M59.5140873,14.1844821 C59.5140873,15.0001071 59.2813492,15.6683571 58.815873,16.1926071 C58.3279101,16.7314821 57.6814153,17.0003571 56.8741402,17.0003571 C56.0960979,17.0003571 55.4765873,16.7427321 55.0144841,16.2252321 C54.5535053,15.7088571 54.3230159,15.0574821 54.3230159,14.2722321 C54.3230159,13.4509821 54.5602513,12.7771071 55.0369709,12.2539821 C55.5136905,11.7308571 56.1545635,11.4687321 56.9618386,11.4687321 C57.739881,11.4687321 58.3650132,11.7263571 58.8383598,12.2427321 C59.2880952,12.7444821 59.5140873,13.3924821 59.5140873,14.1844821 Z M58.2919312,14.2227321 C58.2919312,13.7333571 58.1862434,13.3137321 57.9759921,12.9638571 C57.7286376,12.5408571 57.3767196,12.3293571 56.9191138,12.3293571 C56.4457672,12.3293571 56.0859788,12.5408571 55.8386243,12.9638571 C55.6272487,13.3137321 55.5226852,13.7401071 55.5226852,14.2441071 C55.5226852,14.7334821 55.628373,15.1531071 55.8386243,15.5029821 C56.0938492,15.9259821 56.4491402,16.1374821 56.9078704,16.1374821 C57.3576058,16.1374821 57.7106481,15.9226071 57.9647487,15.4917321 C58.1828704,15.1351071 58.2919312,14.7121071 58.2919312,14.2227321 Z M68.3468915,11.5767321 L66.6884921,16.8799821 L65.609127,16.8799821 L64.9221561,14.5771071 C64.7478836,14.0022321 64.6062169,13.4307321 64.4960317,12.8637321 L64.4746693,12.8637321 C64.3723545,13.4464821 64.2306878,14.0168571 64.048545,14.5771071 L63.3188492,16.8799821 L62.2271164,16.8799821 L60.6676587,11.5767321 L61.8785714,11.5767321 L62.4778439,14.0978571 C62.6228836,14.6941071 62.7420635,15.2622321 62.8376323,15.7999821 L62.8589947,15.7999821 C62.9466931,15.3567321 63.0917328,14.7919821 63.2963624,14.1091071 L64.048545,11.5778571 L65.0087302,11.5778571 L65.7294312,14.0551071 C65.9037037,14.6592321 66.0453704,15.2408571 66.1544312,15.8011071 L66.187037,15.8011071 C66.2668651,15.2554821 66.3871693,14.6738571 66.5468254,14.0551071 L67.1899471,11.5778571 L68.3468915,11.5778571 L68.3468915,11.5767321 Z M74.4554233,16.8799821 L73.2771164,16.8799821 L73.2771164,13.8424821 C73.2771164,12.9064821 72.9218254,12.4384821 72.2089947,12.4384821 C71.8593254,12.4384821 71.5771164,12.5667321 71.3578704,12.8243571 C71.140873,13.0819821 71.0306878,13.3857321 71.0306878,13.7333571 L71.0306878,16.8788571 L69.852381,16.8788571 L69.852381,13.0921071 C69.852381,12.6263571 69.8377646,12.1212321 69.8096561,11.5744821 L70.845172,11.5744821 L70.9002646,12.4036071 L70.9328704,12.4036071 C71.0700397,12.1459821 71.2746693,11.9333571 71.5433862,11.7634821 C71.8626984,11.5654821 72.2202381,11.4653571 72.6115079,11.4653571 C73.1062169,11.4653571 73.5177249,11.6251071 73.8449074,11.9457321 C74.251918,12.3383571 74.4554233,12.9244821 74.4554233,13.7029821 L74.4554233,16.8799821 Z M76.5275794,9.14335714 L77.7047619,9.14335714 L77.7047619,16.8799821 L76.5275794,16.8799821 L76.5275794,9.14335714 Z M84.6419312,14.1844821 C84.6419312,15.0001071 84.4091931,15.6683571 83.9437169,16.1926071 C83.455754,16.7314821 82.8081349,17.0003571 82.0019841,17.0003571 C81.2228175,17.0003571 80.6033069,16.7427321 80.142328,16.2252321 C79.6813492,15.7088571 79.4508598,15.0574821 79.4508598,14.2722321 C79.4508598,13.4509821 79.6880952,12.7771071 80.1648148,12.2539821 C80.6415344,11.7308571 81.2824074,11.4687321 82.0885582,11.4687321 C82.8677249,11.4687321 83.4917328,11.7263571 83.9662037,12.2427321 C84.4159392,12.7444821 84.6419312,13.3924821 84.6419312,14.1844821 Z M83.4186508,14.2227321 C83.4186508,13.7333571 83.312963,13.3137321 83.1027116,12.9638571 C82.8564815,12.5408571 82.5034392,12.3293571 82.0469577,12.3293571 C81.5724868,12.3293571 81.2126984,12.5408571 80.9664683,12.9638571 C80.7550926,13.3137321 80.6505291,13.7401071 80.6505291,14.2441071 C80.6505291,14.7334821 80.7562169,15.1531071 80.9664683,15.5029821 C81.2216931,15.9259821 81.5769841,16.1374821 82.0357143,16.1374821 C82.4854497,16.1374821 82.8373677,15.9226071 83.0914683,15.4917321 C83.3107143,15.1351071 83.4186508,14.7121071 83.4186508,14.2227321 Z M90.3445767,16.8799821 L89.2865741,16.8799821 L89.1988757,16.2691071 L89.1662698,16.2691071 C88.8042328,16.7562321 88.2881614,17.0003571 87.6180556,17.0003571 C87.1177249,17.0003571 86.712963,16.8394821 86.4082672,16.5199821 C86.1316799,16.2297321 85.9933862,15.8686071 85.9933862,15.4399821 C85.9933862,14.7919821 86.2632275,14.2981071 86.8062831,13.9561071 C87.3482143,13.6141071 88.1105159,13.4464821 89.0920635,13.4543571 L89.0920635,13.3553571 C89.0920635,12.6567321 88.7255291,12.3079821 87.991336,12.3079821 C87.4685185,12.3079821 87.0075397,12.4396071 86.6095238,12.7006071 L86.3700397,11.9266071 C86.8625,11.6217321 87.4707672,11.4687321 88.1880952,11.4687321 C89.5732804,11.4687321 90.2681217,12.1999821 90.2681217,13.6624821 L90.2681217,15.6154821 C90.2681217,16.1453571 90.2939815,16.5672321 90.3445767,16.8799821 Z M89.1212963,15.0574821 L89.1212963,14.2396071 C87.8215608,14.2171071 87.1716931,14.5737321 87.1716931,15.3083571 C87.1716931,15.5851071 87.2458995,15.7921071 87.3976852,15.9304821 C87.5494709,16.0688571 87.7428571,16.1374821 87.9733466,16.1374821 C88.2319444,16.1374821 88.4736772,16.0553571 88.6940476,15.8922321 C88.9155423,15.7279821 89.0515873,15.5198571 89.1021825,15.2644821 C89.1145503,15.2071071 89.1212963,15.1373571 89.1212963,15.0574821 Z M97.0400132,16.8799821 L95.9943783,16.8799821 L95.9392857,16.0283571 L95.9066799,16.0283571 C95.5727513,16.6763571 95.003836,17.0003571 94.2044312,17.0003571 C93.5658069,17.0003571 93.0339947,16.7494821 92.6123677,16.2477321 C92.1907407,15.7459821 91.9804894,15.0946071 91.9804894,14.2947321 C91.9804894,13.4363571 92.2087302,12.7411071 92.6674603,12.2101071 C93.1115741,11.7151071 93.655754,11.4676071 94.303373,11.4676071 C95.0150794,11.4676071 95.5131614,11.7072321 95.7964947,12.1876071 L95.8189815,12.1876071 L95.8189815,9.14335714 L96.9984127,9.14335714 L96.9984127,15.4512321 C96.9984127,15.9676071 97.0119048,16.4434821 97.0400132,16.8799821 Z M95.8189815,14.6434821 L95.8189815,13.7592321 C95.8189815,13.6062321 95.8077381,13.4824821 95.7863757,13.3879821 C95.7200397,13.1044821 95.5772487,12.8659821 95.3602513,12.6736071 C95.1410053,12.4812321 94.8767857,12.3844821 94.5720899,12.3844821 C94.1324735,12.3844821 93.7884259,12.5588571 93.5354497,12.9087321 C93.2847222,13.2586071 93.157672,13.7052321 93.157672,14.2508571 C93.157672,14.7751071 93.2779762,15.2003571 93.519709,15.5277321 C93.7749339,15.8764821 94.1189815,16.0508571 94.5496032,16.0508571 C94.9363757,16.0508571 95.2455688,15.9057321 95.4805556,15.6143571 C95.707672,15.3454821 95.8189815,15.0214821 95.8189815,14.6434821 Z M107.11746,14.1844821 C107.11746,15.0001071 106.884722,15.6683571 106.419246,16.1926071 C105.931283,16.7314821 105.285913,17.0003571 104.477513,17.0003571 C103.700595,17.0003571 103.081085,16.7427321 102.617857,16.2252321 C102.156878,15.7088571 101.926389,15.0574821 101.926389,14.2722321 C101.926389,13.4509821 102.163624,12.7771071 102.640344,12.2539821 C103.117063,11.7308571 103.757937,11.4687321 104.566336,11.4687321 C105.343254,11.4687321 105.969511,11.7263571 106.441733,12.2427321 C106.891468,12.7444821 107.11746,13.3924821 107.11746,14.1844821 Z M105.896429,14.2227321 C105.896429,13.7333571 105.790741,13.3137321 105.580489,12.9638571 C105.332011,12.5408571 104.981217,12.3293571 104.522487,12.3293571 C104.050265,12.3293571 103.690476,12.5408571 103.441997,12.9638571 C103.230622,13.3137321 103.126058,13.7401071 103.126058,14.2441071 C103.126058,14.7334821 103.231746,15.1531071 103.441997,15.5029821 C103.697222,15.9259821 104.052513,16.1374821 104.511243,16.1374821 C104.960979,16.1374821 105.315146,15.9226071 105.569246,15.4917321 C105.786243,15.1351071 105.896429,14.7121071 105.896429,14.2227321 Z M113.453108,16.8799821 L112.275926,16.8799821 L112.275926,13.8424821 C112.275926,12.9064821 111.920635,12.4384821 111.20668,12.4384821 C110.857011,12.4384821 110.574802,12.5667321 110.35668,12.8243571 C110.138558,13.0819821 110.029497,13.3857321 110.029497,13.7333571 L110.029497,16.8788571 L108.850066,16.8788571 L108.850066,13.0921071 C108.850066,12.6263571 108.836574,12.1212321 108.808466,11.5744821 L109.842857,11.5744821 L109.89795,12.4036071 L109.930556,12.4036071 C110.068849,12.1459821 110.273479,11.9333571 110.541071,11.7634821 C110.861508,11.5654821 111.217923,11.4653571 111.610317,11.4653571 C112.103902,11.4653571 112.51541,11.6251071 112.842593,11.9457321 C113.250728,12.3383571 113.453108,12.9244821 113.453108,13.7029821 L113.453108,16.8799821 Z M121.383069,12.4598571 L120.085582,12.4598571 L120.085582,15.0361071 C120.085582,15.6908571 120.316071,16.0182321 120.772553,16.0182321 C120.983929,16.0182321 121.159325,16.0002321 121.297619,15.9631071 L121.327976,16.8574821 C121.095238,16.9452321 120.789418,16.9891071 120.412765,16.9891071 C119.947288,16.9891071 119.585251,16.8473571 119.32328,16.5638571 C119.060185,16.2803571 118.929762,15.8033571 118.929762,15.1339821 L118.929762,12.4598571 L118.155093,12.4598571 L118.155093,11.5767321 L118.929762,11.5767321 L118.929762,10.6047321 L120.084458,10.2559821 L120.084458,11.5756071 L121.381944,11.5756071 L121.381944,12.4598571 L121.383069,12.4598571 Z M127.620899,16.8799821 L126.441468,16.8799821 L126.441468,13.8649821 C126.441468,12.9143571 126.086177,12.4384821 125.374471,12.4384821 C124.828042,12.4384821 124.454762,12.7141071 124.250132,13.2653571 C124.215278,13.3812321 124.19504,13.5229821 124.19504,13.6894821 L124.19504,16.8788571 L123.017857,16.8788571 L123.017857,9.14335714 L124.19504,9.14335714 L124.19504,12.3394821 L124.217526,12.3394821 C124.588558,11.7578571 125.12037,11.4676071 125.80959,11.4676071 C126.297553,11.4676071 126.70119,11.6273571 127.021627,11.9479821 C127.420767,12.3473571 127.620899,12.9413571 127.620899,13.7266071 L127.620899,16.8799821 Z M134.055489,13.9774821 C134.055489,14.1889821 134.039749,14.3667321 134.01164,14.5118571 L130.477844,14.5118571 C130.493585,15.0361071 130.662235,15.4354821 130.989418,15.7122321 C131.288492,15.9597321 131.67414,16.0834821 132.146362,16.0834821 C132.66918,16.0834821 133.145899,16.0002321 133.575397,15.8326071 L133.759788,16.6516071 C133.257209,16.8698571 132.665807,16.9789821 131.981085,16.9789821 C131.160317,16.9789821 130.513823,16.7371071 130.046098,16.2533571 C129.576124,15.7696071 129.343386,15.1204821 129.343386,14.3059821 C129.343386,13.5061071 129.560384,12.8401071 129.997751,12.3091071 C130.454233,11.7421071 131.071495,11.4586071 131.850661,11.4586071 C132.612963,11.4586071 133.191997,11.7421071 133.583267,12.3091071 C133.899206,12.7591071 134.055489,13.3159821 134.055489,13.9774821 Z M132.931151,13.6726071 C132.940146,13.3227321 132.862566,13.0212321 132.70291,12.7669821 C132.49828,12.4396071 132.186839,12.2753571 131.765212,12.2753571 C131.380688,12.2753571 131.066997,12.4351071 130.827513,12.7557321 C130.631878,13.0111071 130.516071,13.3159821 130.477844,13.6726071 L132.931151,13.6726071 Z" id="download-on-the" fill="#FFFFFF"></path>
                <path d="M31.3323186,24.4913004 C31.3697386,28.8717088 35.1639002,30.3197496 35.2103917,30.3356247 C35.1877129,30.4376793 34.6162074,32.4254753 33.1931133,34.4438876 C32.0047447,36.2207709 30.7596791,37.9579662 28.7820886,37.9897165 C26.861195,38.0339402 26.2148495,36.8591788 24.011605,36.8591788 C21.7879496,36.8591788 21.0996483,37.9579662 19.2569965,38.0339402 C17.373523,38.1031105 15.9345537,36.1368593 14.7030954,34.3758513 C12.2413127,30.780129 10.3249549,24.2429676 12.8944619,19.7945229 C14.1395275,17.6128232 16.4096744,16.2078722 18.836305,16.1704522 C20.7220464,16.1318982 22.4717151,17.4438663 23.6306013,17.4438663 C24.7668087,17.4438663 26.9303653,15.8744939 29.1608244,16.1092194 C30.0940566,16.136434 32.749743,16.4777498 34.4631256,18.9758186 C34.324785,19.0585961 31.2994343,20.8366133 31.3323186,24.4913004 Z M27.7037121,13.7438216 C26.6695592,14.9639405 25.0151415,15.8971727 23.4038134,15.7769751 C23.1929006,14.130495 24.0093371,12.3796923 24.9232924,11.3115213 C25.9563113,10.0993399 27.7502036,9.17064347 29.1846371,9.10714286 C29.3728711,10.8182576 28.6947752,12.5044257 27.7037121,13.7438216 Z" id="apple" fill="#FFFFFF"></path>
            </g>
        </g>
    </g>
</svg>