<?xml version="1.0" encoding="UTF-8"?>
<svg width="132px" height="122px" viewBox="0 0 132 122" version="1.1" xmlns="http://www.w3.org/2000/svg" xmlns:xlink="http://www.w3.org/1999/xlink">
    <!-- Generator: Sketch 52.2 (67145) - http://www.bohemiancoding.com/sketch -->
    <title>doplnkovesluzby-icon</title>
    <desc>Created with Sketch.</desc>
    <g id="Page-V5" stroke="none" stroke-width="1" fill="none" fill-rule="evenodd">
        <g id="Desktop---doplnkove-sluzby---V5" transform="translate(-719.000000, -1306.000000)" stroke="#663366" stroke-width="2">
            <g id="doplnkovesluzby-icon" transform="translate(720.000000, 1306.000000)">
                <g id="Group-18">
                    <path d="M21.8482926,71.5772237 C21.9480685,70.9470978 22,70.2998124 22,69.6396924 C22,63.2112678 17.0751322,58 11,58 C4.92486775,58 0,63.2112678 0,69.6396924 C0,72.4318462 0.929103624,74.9943767 2.47801389,77" id="Path" stroke-linecap="round"></path>
                    <path d="M38.5987714,59.0725071 L124.346734,69.7173913 C127.468946,69.7173913 130,72.3988163 130,75.7065217 C130,79.0142271 127.468946,81.6956522 124.346734,81.6956522 C69.1801045,81.5385403 40.8888659,81.5340376 39.4730181,81.6821442 C38.0571702,81.8302508 33.8569478,83.5377497 26.8723509,86.804641 C26.14385,87.1670371 25.330431,87.3695652 24.4723618,87.3695652 L10.6532663,88 C7.53105355,88 5,85.4597026 5,82.326087 C5,79.1924713 7.53105355,76.6521739 10.6532663,76.6521739 L24.3532451,75.3571389 C25.2905446,75.1639542 26.0647278,73.1703524 26.4017093,69.3149109 C26.9071815,63.5317485 31.6155635,59 37.3492462,59 C37.7717456,59 38.1886778,59.0246065 38.5987714,59.0725071 Z" id="Path"></path>
                    <rect id="Rectangle-Copy-27" fill="#FFFFFF" x="39" y="86" width="91" height="1" rx="0.5"></rect>
                    <circle id="Oval" fill="#FFFFFF" cx="88" cy="11" r="10"></circle>
                    <path d="M84.2218254,60.7593792 L84.3051358,45.929169 C84.3082382,45.3768929 83.8630451,44.9266697 83.3107691,44.9235672 C82.9395228,44.9214817 82.5976761,45.1252365 82.4228992,45.4527746 L81.8091367,46.6029872 C81.4670959,47.2369342 81.2848683,47.3719859 80.8284271,47.8284271 L65.2772875,58.2796125 C64.5587245,58.7598708 63.9662954,59 63.5,59 L54,58 C52.8954305,58 52,57.1045695 52,56 C52,54.8954305 52.8954305,54 54,54 L62.2456135,54 C63.0482039,54 63.8173287,53.6784067 64.3810453,53.1071143 L75.1715729,42.1715729 C75.2788749,42.0642709 75.4295635,41.8918995 75.6236389,41.6544588 C80.1610474,32.3738278 83.0271096,27.2296167 84.2218254,26.2218254 C86.2124339,24.2312169 88.9624339,23 92,23 C95.3672043,23 97.7976155,24.1659052 100.398808,26.8961173 C102.132936,28.7162587 106,41.0842196 112,64" id="Path" fill="#FFFFFF" stroke-linecap="round"></path>
                    <path d="M69.0727123,60.0034435 L81,52" id="Path-8" stroke-linecap="round"></path>
                </g>
                <path d="M38,121 C46,102.333333 61.3333333,93 84,93 C106.666667,93 122,102.333333 130,121" id="Path-9" opacity="0.2" stroke-linecap="round"></path>
                <path d="M45,121 C51.7826087,105.666667 64.7826087,98 84,98 C103.217391,98 116.217391,105.666667 123,121" id="Path-9-Copy" opacity="0.2" stroke-linecap="round"></path>
            </g>
        </g>
    </g>
</svg>