<?xml version="1.0" encoding="UTF-8"?>
<svg width="150px" height="51px" viewBox="0 0 150 51" version="1.1" xmlns="http://www.w3.org/2000/svg" xmlns:xlink="http://www.w3.org/1999/xlink">
    <!-- Generator: Sketch 52.2 (67145) - http://www.bohemiancoding.com/sketch -->
    <title>googleplay-icon</title>
    <desc>Created with Sketch.</desc>
    <defs>
        <linearGradient x1="50%" y1="0%" x2="50%" y2="100%" id="linearGradient-1">
            <stop stop-color="#1E79AF" offset="0%"></stop>
            <stop stop-color="#63FFD3" offset="100%"></stop>
        </linearGradient>
        <linearGradient x1="84.7178118%" y1="14.4459862%" x2="5.24419544%" y2="96.5617838%" id="linearGradient-2">
            <stop stop-color="#DC4057" offset="0%"></stop>
            <stop stop-color="#9E36BB" offset="100%"></stop>
        </linearGradient>
        <linearGradient x1="50%" y1="0%" x2="50%" y2="97.8256537%" id="linearGradient-3">
            <stop stop-color="#FF9676" offset="0%"></stop>
            <stop stop-color="#FFD074" offset="100%"></stop>
        </linearGradient>
        <linearGradient x1="17.4435371%" y1="0%" x2="100%" y2="100%" id="linearGradient-4">
            <stop stop-color="#51C6AD" offset="0%"></stop>
            <stop stop-color="#D5FFA1" offset="100%"></stop>
        </linearGradient>
    </defs>
    <g id="Page-V5" stroke="none" stroke-width="1" fill="none" fill-rule="evenodd">
        <g id="Desktop--zamkovy-system---V5" transform="translate(-1090.000000, -1694.000000)">
            <g id="googleplay-icon" transform="translate(1090.000000, 1694.000000)">
                <rect id="bg" fill="#000000" x="0" y="0" width="150" height="50.8928571" rx="3"></rect>
                <g id="google-play" transform="translate(11.209144, 20.916333)">
                    <path d="M0.938480335,-0.152995221 C0.515889775,-0.0196989555 0.242410522,0.411708171 0.242410522,1.06440023 L0.245015086,21.6064711 C0.245015086,22.2519402 0.510029505,22.676781 0.920899526,22.8186135 L12.3191241,11.3236163 L0.938480335,-0.152995221" id="left" fill="url(#linearGradient-1)"></path>
                    <path d="M0.920899526,22.8186135 C1.21651758,22.9197348 1.58701685,22.8724573 1.99072432,22.6492025 L15.9004,14.9350915 L12.3191241,11.3236163 L0.920899526,22.8186135" id="bottom" fill="url(#linearGradient-2)"></path>
                    <path d="M15.9023535,14.9350915 L20.6452651,12.3052809 C21.6070005,11.7701259 21.6070005,10.8994321 20.6452651,10.3655904 L15.8847727,7.72593037 L12.3191241,11.3216464 L15.9023535,14.9350915" id="right" fill="url(#linearGradient-3)"></path>
                    <path d="M15.8841215,7.72593037 L1.99072432,0.022325483 C1.59678397,-0.19501966 1.23344724,-0.245580313 0.939131476,-0.152995221 L12.3191241,11.3216464 L15.8841215,7.72593037" id="top" fill="url(#linearGradient-4)"></path>
                </g>
                <path d="M51.9883428,37.2651526 L49.0425806,37.9454232 C47.849039,38.1351898 46.7772608,38.3019743 45.6423219,38.3019743 C39.9604648,38.3019743 37.7954208,34.0844279 37.7954208,30.7835396 C37.7954208,26.7524766 40.8629464,23.0149281 46.1163526,23.0149281 C47.2278504,23.0149281 48.2970241,23.1797427 49.2711311,23.4476485 C50.8149866,23.8849653 51.5371021,24.4240601 51.9883428,24.7399 L50.2771441,26.3788531 L49.5556798,26.5416978 L50.0700812,25.7149983 C49.3733603,25.028818 48.0925658,23.7621752 45.6618561,23.7621752 C42.412011,23.7621752 39.9604648,26.2534364 39.9604648,29.8905203 C39.9604648,33.7968231 42.7597203,37.471335 47.2493381,37.471335 C48.5685499,37.471335 49.24769,37.2040858 49.8643206,36.9545657 L49.8643206,33.6057433 L46.7538197,33.7744977 L48.4025089,32.8814783 L52.7677587,32.8814783 L52.233823,33.3995609 C52.0899209,33.5230077 52.0703866,33.5650321 52.0300159,33.7305033 C52.0085282,33.9196133 51.9883428,34.5210881 51.9883428,34.7325235 L51.9883428,37.2651526 Z M58.7439315,38.0340685 C55.2505596,38.0340685 53.3850405,35.2913172 53.3850405,32.8079356 C53.3850405,29.9062794 55.7350086,27.4235544 59.0753623,27.4235544 C62.3037198,27.4235544 64.3248617,29.9739125 64.3248617,32.6516572 C64.3248617,35.2670219 62.327812,38.0340685 58.7439315,38.0340685 Z M61.492398,36.2414635 C62.0198223,35.5323011 62.1513528,34.6471614 62.1513528,33.7843471 C62.1513528,31.8328373 61.2267325,28.1110479 58.5043116,28.1110479 C57.776987,28.1110479 57.0548716,28.3966828 56.5274473,28.8628914 C55.6679411,29.6383736 55.5155741,30.6128153 55.5155741,31.5688713 C55.5155741,33.7580819 56.5932126,37.3689004 59.2518216,37.3689004 C60.1093744,37.3689004 60.9851591,36.9493127 61.492398,36.2414635 Z M70.4377742,38.0340685 C66.9450534,38.0340685 65.0762785,35.2913172 65.0762785,32.8079356 C65.0762785,29.9062794 67.4255955,27.4235544 70.7672516,27.4235544 C73.9975624,27.4235544 76.0206578,29.9739125 76.0206578,32.6516572 C76.0206578,35.2670219 74.0210035,38.0340685 70.4377742,38.0340685 Z M73.1855895,36.2414635 C73.7169206,35.5323011 73.8458466,34.6471614 73.8458466,33.7843471 C73.8458466,31.8328373 72.9238308,28.1110479 70.1988054,28.1110479 C69.4740854,28.1110479 68.7441562,28.3966828 68.2180342,28.8628914 C67.3598303,29.6383736 67.2068121,30.6128153 67.2068121,31.5688713 C67.2068121,33.7580819 68.2798926,37.3689004 70.9430596,37.3689004 C71.8025659,37.3689004 72.6796529,36.9493127 73.1855895,36.2414635 Z M84.0609478,28.5109367 C84.5655821,28.9292112 85.6184773,29.8169775 85.6184773,31.5005816 C85.6184773,33.1415046 84.7010195,33.9150169 83.775748,34.6471614 C83.4918505,34.9354228 83.1597686,35.2479795 83.1597686,35.7312606 C83.1597686,36.2217646 83.4918505,36.4877005 83.7308193,36.6860033 L84.5245603,37.3038939 C85.4895513,38.1253403 86.3692429,38.878497 86.3692429,40.4084493 C86.3692429,42.4925987 84.3689375,44.5944773 80.5890636,44.5944773 C77.4049837,44.5944773 75.8656862,43.0651817 75.8656862,41.425572 C75.8656862,40.6277643 76.2596265,39.4977009 77.5593041,38.7235319 C78.9214913,37.8836998 80.7668251,37.7714157 81.7552573,37.7057526 C81.4466164,37.3038939 81.0943491,36.8829928 81.0943491,36.1961559 C81.0943491,35.8205625 81.2063453,35.596651 81.3144347,35.332685 C81.0741637,35.3556672 80.8319392,35.3793059 80.6118535,35.3793059 C78.2814196,35.3793059 76.9641612,33.6260989 76.9641612,31.8985005 C76.9641612,30.8794078 77.4251691,29.7486878 78.3719282,28.9292112 C79.6247236,27.8891064 81.1184413,27.7098459 82.3054715,27.7098459 L86.8335065,27.7098459 L85.4257395,28.5109367 L84.0609478,28.5109367 Z M82.5040695,38.3479385 C82.3237034,38.3242998 82.215614,38.3242998 81.9981329,38.3242998 C81.7988837,38.3242998 80.6118535,38.3676375 79.6924423,38.678881 C79.2060399,38.8581415 77.8002263,39.3880434 77.8002263,40.9619899 C77.8002263,42.5326533 79.3180362,43.6653432 81.6660509,43.6653432 C83.775748,43.6653432 84.8957107,42.645594 84.8957107,41.2725768 C84.8957107,40.1425134 84.1709907,39.5462916 82.5040695,38.3479385 Z M83.1356763,34.1376151 C83.6435664,33.6260989 83.687844,32.919563 83.687844,32.5183609 C83.687844,30.9247154 82.7456428,28.442647 80.9191921,28.442647 C80.3494437,28.442647 79.7321619,28.7309084 79.381848,29.1767614 C79.0100465,29.6383736 78.8987013,30.2372219 78.8987013,30.813088 C78.8987013,32.297076 79.7569053,34.7581322 81.6445633,34.7581322 C82.1954286,34.7581322 82.787967,34.4882565 83.1356763,34.1376151 Z M90.066422,36.0884683 C90.066422,36.9493127 90.218789,37.0832656 90.9409044,37.1508986 C91.317264,37.1955496 91.6923213,37.2152486 92.0634717,37.2598995 L91.2508476,37.747777 L87.3785116,37.747777 C87.8864016,37.0832656 87.9736546,37.0169457 87.9736546,36.5743759 L87.9736546,36.0799321 L87.9651897,22.9052706 L86.2552932,22.9052706 L87.9013779,22.105493 L91.0437847,22.105493 C90.3626912,22.5034119 90.158884,22.7457091 90.0716311,23.5211913 L90.066422,36.0884683 Z M100.866899,36.2598492 L99.8159574,37.2598995 C99.5730817,37.3945091 99.3315084,37.5507874 99.0905862,37.6617582 C98.360657,37.9959838 97.6183562,38.0800327 96.9587503,38.0800327 C96.2568202,38.0800327 95.1563918,38.0340685 94.0338246,37.2152486 C92.4743417,36.1075106 91.792597,34.2032783 91.792597,32.5439696 C91.792597,29.1084717 94.5658068,27.4235544 96.8278709,27.4235544 C97.6183562,27.4235544 98.4303291,27.6231705 99.0905862,28.0440715 C100.18841,28.776216 100.472308,29.7276756 100.629884,30.2372219 L95.4643815,32.341727 L93.772717,32.4743666 C94.3203266,35.2913172 96.2099381,36.9296137 98.2981475,36.9296137 C99.3412755,36.9296137 100.115482,36.5861952 100.825877,36.2322707 C100.825877,36.2322707 100.968477,36.1574146 100.866899,36.2598492 Z M97.7505379,30.6568096 C98.1698727,30.5031578 98.388005,30.3705181 98.388005,30.0619012 C98.388005,29.1767614 97.3950148,28.1543856 96.2099381,28.1543856 C95.3321999,28.1543856 93.6841618,28.8438491 93.6841618,31.2379288 C93.6841618,31.6115523 93.7284394,32.0094712 93.7505782,32.4073901 L97.7505379,30.6568096 Z M107.200548,36.3544042 L107.200548,41.998155 L106.089051,41.998155 L106.089051,27.6369597 L107.200548,27.6369597 L107.200548,29.2726297 C107.924617,28.2154524 109.247736,27.3775902 110.784429,27.3775902 C113.540709,27.3775902 115.397112,29.486035 115.397112,32.8236947 C115.397112,36.139029 113.540709,38.2914682 110.784429,38.2914682 C109.333686,38.2914682 108.034009,37.5369982 107.200548,36.3544042 Z M114.202919,32.8236947 C114.202919,30.3081381 112.902591,28.3894598 110.5969,28.3894598 C109.165041,28.3894598 107.795691,29.5241197 107.200548,30.5136639 L107.200548,35.1107435 C107.795691,36.1022576 109.165041,37.2782852 110.5969,37.2782852 C112.902591,37.2782852 114.202919,35.3431911 114.202919,32.8236947 Z M116.914922,23.67156 L118.025769,23.67156 L118.025769,38.0327552 L116.914922,38.0327552 L116.914922,23.67156 Z M127.251136,38.0018935 C127.176905,37.6414026 127.120907,37.3235928 127.079885,37.0583135 C127.046026,36.7936909 127.026492,36.5231586 127.026492,36.2480298 C126.645574,36.8120766 126.105778,37.2815684 125.41622,37.6512521 C124.72601,38.0235624 124.070311,38.206106 123.171086,38.206106 C122.088238,38.206106 121.247615,37.9375436 120.647914,37.3925392 C120.050166,36.8481914 119.749339,36.1107938 119.749339,35.1777199 C119.749339,34.2459593 120.184953,33.4895194 121.053575,32.9110268 C121.922197,32.3299076 123.044764,32.0409896 124.434299,32.0409896 L127.026492,32.0409896 L127.026492,30.7493947 C127.026492,30.0054308 126.775151,29.4203718 126.273122,28.9961877 C125.769138,28.5713469 125.061999,28.3566282 124.145193,28.3566282 C123.307174,28.3566282 122.627383,28.5529612 122.109726,28.9351209 C121.596626,29.3251602 121.338123,29.8084413 121.338123,30.3908737 L120.20058,30.3908737 L120.177139,30.33506 C120.136117,29.5497283 120.492291,28.8609215 121.249568,28.2660131 C122.00359,27.6717612 122.991371,27.3729937 124.207051,27.3729937 C125.418825,27.3729937 126.399443,27.6671648 127.138488,28.2541937 C127.876882,28.8353129 128.247381,29.675145 128.247381,30.7730335 L128.247381,35.9013282 C128.247381,36.2696987 128.264962,36.6255932 128.310542,36.9722948 C128.357424,37.319653 128.432305,37.6663546 128.53193,38.0018935 L127.251136,38.0018935 Z M123.307174,37.1850435 C124.251329,37.1850435 124.929818,36.9722948 125.623283,36.5513938 C126.31219,36.1331193 126.781012,35.5874582 127.026492,34.9268866 L127.026492,32.9307257 L124.421928,32.9307257 C123.426984,32.9307257 122.603291,33.1526673 121.955405,33.6004902 C121.306218,34.0469999 120.977391,34.5874079 120.977391,35.2158046 C120.977391,35.8087431 121.185756,36.2828313 121.599882,36.642009 C122.01531,37.0051264 122.583105,37.1850435 123.307174,37.1850435 Z M130.497725,41.0696775 C130.735391,41.1767085 131.141052,41.2423717 131.398253,41.2423717 C132.078044,41.2423717 132.551424,40.9619899 132.976619,39.9717891 L133.78729,38.1194306 L129.409017,27.6369597 L130.64879,27.6369597 L134.404571,36.7208048 L138.123889,27.6369597 L139.381243,27.6369597 L134.041235,40.3191473 C133.487114,41.6258447 132.615236,42.2542414 131.417787,42.2542414 C131.058357,42.2542414 130.584327,42.1898915 130.306941,42.1038727 L130.497725,41.0696775 Z" id="logotype" fill="#FFFFFF"></path>
                <path d="M37.7125584,11.8304832 C37.7125584,9.60031265 39.3694272,8.16573103 41.4303941,8.16573103 C42.8112287,8.16573103 43.7136482,8.82462999 44.2769969,9.63149921 L43.2677468,10.2160813 C42.8855456,9.68458271 42.2160299,9.27119494 41.4303941,9.27119494 C40.0289897,9.27119494 38.987226,10.332865 38.987226,11.8304832 C38.987226,13.3062046 40.0289897,14.3897716 41.4303941,14.3897716 C42.1529933,14.3897716 42.7899953,14.0606538 43.1084963,13.7527695 L43.1084963,12.6585859 L40.9844927,12.6585859 L40.9844927,11.5644022 L44.3406971,11.5644022 L44.3406971,14.2092876 C43.6506116,14.9849703 42.6519782,15.5051886 41.4303941,15.5051886 C39.3694272,15.5051886 37.7125584,14.0507007 37.7125584,11.8304832 Z M45.8774644,15.3671715 L45.8774644,8.28251473 L50.7312871,8.28251473 L50.7312871,9.37736194 L47.1196184,9.37736194 L47.1196184,11.2034344 L50.6569702,11.2034344 L50.6569702,12.2976181 L47.1196184,12.2976181 L47.1196184,14.2729878 L50.7312871,14.2729878 L50.7312871,15.3671715 L45.8774644,15.3671715 Z M54.1697709,15.3671715 L54.1697709,9.37736194 L52.0245339,9.37736194 L52.0245339,8.28251473 L57.5578253,8.28251473 L57.5578253,9.37736194 L55.4125884,9.37736194 L55.4125884,15.3671715 L54.1697709,15.3671715 Z M61.8768317,8.28251473 L63.1189856,8.28251473 L63.1189856,15.3671715 L61.8768317,15.3671715 L61.8768317,8.28251473 Z M66.5800299,15.3671715 L66.5800299,9.37736194 L64.4347929,9.37736194 L64.4347929,8.28251473 L69.9680844,8.28251473 L69.9680844,9.37736194 L67.8228474,9.37736194 L67.8228474,15.3671715 L66.5800299,15.3671715 Z M73.9792065,11.8304832 C73.9792065,9.71643281 75.4761612,8.16573103 77.6014919,8.16573103 C79.7142152,8.16573103 81.2231138,9.71643281 81.2231138,11.8304832 C81.2231138,13.9438701 79.7142152,15.4945719 77.6014919,15.4945719 C75.4761612,15.4945719 73.9792065,13.9438701 73.9792065,11.8304832 Z M79.9484462,11.8304832 C79.9484462,10.3647151 79.0241297,9.27119494 77.6014919,9.27119494 C76.1669103,9.27119494 75.253874,10.3647151 75.253874,11.8304832 C75.253874,13.2849712 76.1669103,14.3897716 77.6014919,14.3897716 C79.0241297,14.3897716 79.9484462,13.2849712 79.9484462,11.8304832 Z M87.6130402,15.3671715 L83.9164379,10.3010149 L83.9164379,15.3671715 L82.674284,15.3671715 L82.674284,8.28251473 L83.9489515,8.28251473 L87.5705734,13.1900844 L87.5705734,8.28251473 L88.8133909,8.28251473 L88.8133909,15.3671715 L87.6130402,15.3671715 Z" id="get-it-on" fill="#FFFFFF"></path>
            </g>
        </g>
    </g>
</svg>