<?xml version="1.0" encoding="utf-8"?>
<!-- Generator: Adobe Illustrator 23.1.0, SVG Export Plug-In . SVG Version: 6.00 Build 0)  -->
<svg version="1.1" id="Vrstva_1" xmlns="http://www.w3.org/2000/svg" xmlns:xlink="http://www.w3.org/1999/xlink" x="0px" y="0px"
	 viewBox="0 0 275.9 141" style="enable-background:new 0 0 275.9 141;" xml:space="preserve">
<style type="text/css">
	.st0{fill:#FFFFFF;}
</style>
<title>Group Copy 3</title>
<desc>Created with Sketch.</desc>
<g id="Group-Copy-3" transform="translate(177.000000, 901.000000)">
	<g id="logoAfred-Copy-4" transform="translate(120.977212, 0.000000)">
		<path id="Shape" class="st0" d="M-211.3-884.9c0-7.7-1.8-11.5-5.3-11.5c-0.8,0-1.5,0.3-2.1,1c-0.7,1.5-1.1,3.1-1.2,4.7
			c-0.7,4-1,14.1-1,30.8C-214.6-864.9-211.3-873.2-211.3-884.9z M-198.7-833.1c1.4,0,2.1,2.1,2.1,6.3c0.1,5.6-1.5,11.2-4.7,15.7
			c-2.7,4.1-7.1,6.6-11.9,6.6c-6,0-10.4-1.9-13.4-5.7s-4.4-9.3-4.4-16.2v-44.9c0-10.3,1-17.8,2.9-22.5c1.6-4.6,5.9-7.5,10.5-7.2
			c7.3,0,10.9,5.3,10.9,16c0,7.9-1.5,14.4-4.4,19.3c-2.5,4.4-5.9,8.1-10,10.9v31.9c0,4.6,0.8,7.9,2.5,10.3c1.6,2.2,4.1,3.5,6.7,3.4
			c2.9,0,5.5-1.8,7.9-5.4c2.5-3.7,3.7-9.6,3.7-17.8C-200.2-833-199.7-833.1-198.7-833.1z"/>
		<path id="Shape_1_" class="st0" d="M-181.7-885.1c0-7.6-2-11.4-5.9-11.4c-0.9,0-1.8,0.3-2.4,1c-0.9,1.6-1.3,3.4-1.3,5.1
			c-0.6,4.7-1,14.8-1.2,30.2C-185.3-865.1-181.7-873.4-181.7-885.1z M-173.8-853.1l-18.9-0.1v90.8c-1.1,1.2-2.7,1.8-4.2,1.6
			c-1.8,0.1-3.6-0.6-4.8-1.8c-1.3-1.5-2-3.4-1.8-5.4v-103.8c0-10.1,1.1-17.4,3.3-22.1c2-4.5,6.6-7.4,11.7-7.2c8,0,12,5.3,12,15.9
			c0,12.1-4.2,21.5-12.6,27.7h11.4c1.2-0.1,2.4,0.1,3.3,0.9C-173.9-855.4-173.6-854.2-173.8-853.1z"/>
		<path id="Path" class="st0" d="M-170.1-826v19.9c-1,1.2-2.6,1.8-4.1,1.7c-1.7,0.2-3.5-0.6-4.7-2c-1.3-1.5-1.9-3.5-1.7-5.7v-45.4
			c1-1.2,2.6-2,4.1-1.7c1.5-0.2,3.1,0.5,4.2,1.4c1.3,1.1,2,2.6,2.3,4.2v9.6c3.9-10.3,9.3-15.4,16.3-15.4c4.9,0,8.6,1.4,10.8,4.2
			c2.3,2.8,3.5,6.3,3.5,10c0,1.8-0.6,3.5-1.7,4.9c-0.9,1.1-2,1.7-3.3,1.8c-2,0-3.3-0.5-4.1-1.5c0.6-1.7,0.7-3.5,0.7-5.4
			c0-2.3-0.7-4.6-2.2-6.3c-1.3-1.7-3.3-2.8-5.4-2.8c-3.6,0-7,3.5-9.9,10.6C-168.2-837-170.1-831-170.1-826z"/>
		<path id="Shape_2_" class="st0" d="M-127.7-830.2v1c4.8-0.4,9.4-2.1,13.4-4.8c3.8-2.5,6-6.7,5.7-11.2c0.2-2.5-0.6-5.1-2.2-7.2
			c-1.5-1.6-3.7-2.5-6-2.4c-3.7-0.1-7.1,2.1-8.5,5.5C-126.9-845.4-127.7-839.2-127.7-830.2z M-87.1-832c1.7,0,2.6,1.3,2.6,3.9
			c0,6-2.3,11.8-6.5,16.3c-4.3,4.9-10.8,7.5-19.5,7.5s-15.7-2.2-21.1-6.9c-5.2-4.5-7.8-11.2-7.8-20.1s2.3-15.7,6.9-20.7
			c4.5-4.9,11.1-7.6,17.9-7.5c5.2,0,9.1,1.3,11.4,4c2.5,2.7,3.7,6.1,3.7,9.5c0.2,6-2.8,11.6-7.8,15.2c-5.2,4-11.9,6-19.9,6
			c0.8,5.2,2.6,9.1,5.9,11.6c3.5,2.7,7.8,4.2,12.3,3.9c5.2,0,10.2-2.1,13.9-5.7c4.2-3.7,6.2-9.2,6.2-16.6
			C-88.8-831.7-88.1-832-87.1-832z"/>
		<path id="Shape_3_" class="st0" d="M-42.1-896.3c-1.6,0-2.8,1.8-3.1,5.6c-0.3,3.8-0.6,11.9-0.6,24.8c5.5-6.9,8.1-13.9,8.1-20.3
			C-37.8-893-39.1-896.3-42.1-896.3z M-69.2-809.2c2.9,0,5.7-1.6,8.4-4.9c2.8-3.5,4.1-8,4-12.4v-15.3c0.1-3.2-0.7-6.5-2.8-9.1
			c-1.6-2.1-4-3.2-6.6-3.2c-1.9,0-4,0.1-5.9,0.6c-1.6,0.6-2.9,1.5-4.1,2.7c-2.5,2.7-3.8,8.7-3.8,18.4c0,9.6,1.2,16.1,3.4,19.2
			C-75.1-810.8-72.3-809.2-69.2-809.2z M-91.3-832.4c0-9.1,2.2-15.8,6.5-20c4.3-4.3,10-6.3,17.2-6.2c3.8-0.1,7.7,0.7,10.9,2.8V-872
			c0-10,1-17.4,3.1-22s5.9-6.9,11.3-6.9c2.8-0.1,5.6,1.3,7.1,3.8c1.6,2.5,2.5,6.2,2.5,10.9c0,8.5-4.4,17.2-13.3,26.1v37.4
			c0,4.6,0.7,8,2.4,10.3c1.3,2.2,3.7,3.5,6.2,3.4c2.5,0,5-1.6,7.4-4.7c2.4-3.1,3.5-8.1,3.5-15c0-1.5,0-2.7-0.1-3.5
			c0-0.4,0.6-0.7,1.8-0.7c1.5,0,2.2,2.1,2.2,6.3c0,6.6-1.5,11.9-4.4,16.1c-2.5,3.8-6.9,6.2-11.5,6.2c-8.5,0-14.2-3.7-16.8-11.2
			c-1.3,3.1-3.5,5.9-6.2,8.1c-2.5,2.1-5.6,3.1-8.8,3.1C-84.4-804.6-91.3-813.9-91.3-832.4z"/>
		<path id="Path_1_" class="st0" d="M-249.3-857.3c-2-1.5-4.2-2.3-6.9-2.3C-253.7-858.8-251.5-858.1-249.3-857.3z"/>
		<path id="Path_2_" class="st0" d="M-228.5-832.7c-1.2,0-1.8,0.3-1.8,0.7c0,15.2-3.7,22.9-11.2,22.9c-2.5,0-4.7-1.3-5.9-3.5
			c-1.5-2.3-2.2-5.6-2.2-10.1v-7.7c-1.3-0.6-6-2.5-10.9-4.3v9.7c0.1,4.2-1.3,8.2-4.3,11.4c-2.8,2.9-5.5,4.3-7.8,4.3
			c-2.1,0.1-4-0.4-5.7-1.3c-1.5-0.9-2.7-3-3.8-6.5c-1.3-4.6-1.8-9.6-1.6-14.3c0-3.9,0.3-7.2,0.7-10c-4.4-1-8.5-1.9-10.3-2.2
			c-1,3.5-1.8,7.4-1.8,12.2c0,17.9,6.9,26.9,20.9,26.9c3.2,0,6.3-1,9-2.7c2.7-2,4.9-4.6,6.2-7.7c2.7,6.9,8,10.4,15.9,10.4
			c4.9,0.1,9.4-2,12.2-5.9c2.9-3.9,4.4-9.3,4.4-15.9C-226.3-830.6-227-832.7-228.5-832.7z"/>
		<path class="st0" d="M-243.3-855.1c-6.3-2.6-12.6-5-19-6.9c-6.5-1.9-13.2-3.5-19.9-4.5c-0.6-0.1-1.3,0.3-1.5,0.8l-6.2,13
			c0.2,0,0.3,0,0.5,0c0,0,15.3,3.9,20.3,5.5s19,6.5,19,6.5c0.4,0.2,0.7,0.6,0.6,1.2c-0.1,0.4-0.7,0.7-1.2,0.6c0,0-14-4.9-19-6.5
			s-20.4-5.5-20.4-5.5c-0.2-0.1-0.4-0.2-0.5-0.4l-2.4,5c-0.1,0.6,0.3,1.2,0.9,1.4c0,0,17.6,3.6,23.1,5.1s21.3,7.8,21.3,7.8
			c0.6,0.1,1.3-0.1,1.5-0.7c0,0,2.2-15.7,3.5-20.8C-242.2-854.2-242.7-854.8-243.3-855.1z M-247.1-846.5c0,0.4-0.6,0.8-1,0.6
			c0,0-13.2-5-18-6.4c-4.7-1.4-19.3-5.5-19.3-5.5c-0.4-0.2-0.7-0.6-0.6-1.2c0.2-0.5,0.6-0.8,1.2-0.6c0,0,14.6,4,19.1,5.3
			c4.6,1.4,18,6.5,18,6.5C-247.2-847.5-246.9-847.1-247.1-846.5z"/>
	</g>
</g>
</svg>
