<?xml version="1.0" encoding="UTF-8"?>
<svg width="394px" height="141px" viewBox="0 0 394 141" version="1.1" xmlns="http://www.w3.org/2000/svg" xmlns:xlink="http://www.w3.org/1999/xlink">
    <!-- Generator: Sketch 52.2 (67145) - http://www.bohemiancoding.com/sketch -->
    <title>Group Copy 3</title>
    <desc>Created with Sketch.</desc>
    <g id="Page-1" stroke="none" stroke-width="1" fill="none" fill-rule="evenodd">
        <g id="myAlfred-logo" transform="translate(-177.000000, -951.000000)">
            <g id="Group-6" transform="translate(0.000000, 50.000000)">
                <g id="Group-Copy-3" transform="translate(177.000000, 901.000000)">
                    <g id="logoAfred-Copy-4" transform="translate(120.977212, 0.000000)">
                        <path d="M83.8071511,16.060417 C83.8071511,8.40741449 82.0289738,4.58091322 78.4726191,4.58091322 C77.6511295,4.58091322 76.9674132,4.87462005 76.4201826,5.61027254 C75.7364664,7.08157752 75.3257216,8.70112133 75.1892358,10.3192797 C74.5055195,14.2926344 74.2312605,24.4476867 74.2312605,41.0767579 C80.5250555,36.0740439 83.8071511,27.8322423 83.8071511,16.060417 Z M96.3934536,67.8608815 C97.7608861,67.8608815 98.44589,69.9209855 98.44589,74.1894324 C98.5823758,79.7823309 96.9406841,85.373844 93.7950742,89.9359978 C91.0589215,94.0575913 86.6810772,96.5582556 81.8937756,96.5582556 C75.8742397,96.5582556 71.4963954,94.645005 68.4872712,90.8185037 C65.4768594,86.9920024 64.1094269,81.5473427 64.1094269,74.6299927 L64.1094269,29.7468783 C64.1094269,19.4449727 65.0674022,11.9402089 66.9820653,7.23120176 C68.6237569,2.66904799 72.8638279,-0.273561969 77.5146437,0.0201448633 C84.7651265,0.0201448633 88.4592545,5.31795112 88.4592545,16.0618025 C88.4592545,24.0085118 86.9540487,30.4839162 84.0814102,35.3397768 C81.6195166,39.7550772 78.1996476,43.4333396 74.0960623,46.2290962 L74.0960623,78.1641725 C74.0960623,82.7263263 74.9175519,86.1108819 76.557956,88.4660782 C78.1996476,90.6730357 80.6628288,91.9974873 83.2612082,91.8506338 C86.1338466,91.8506338 88.7335136,90.0842366 91.1954073,86.4059742 C93.6573009,82.7263263 94.8895353,76.839721 94.8895353,68.5993048 C94.8882477,68.0091203 95.4354782,67.8608815 96.3934536,67.8608815 Z" id="Shape" fill="#663366" fill-rule="nonzero"></path>
                        <path d="M113.359834,15.9388491 C113.359834,8.34443041 111.409802,4.54722106 107.509738,4.54722106 C106.608855,4.54722106 105.709383,4.83867957 105.109264,5.56870062 C104.208381,7.1758468 103.759351,8.92734742 103.759351,10.6802228 C103.159232,15.3531825 102.710203,25.4304977 102.559114,40.9094188 C109.759124,35.9463754 113.359834,27.6205609 113.359834,15.9388491 Z M121.311051,47.9209205 L102.409437,47.7751912 L102.409437,138.611258 C101.358877,139.779842 99.7096102,140.364133 98.208608,140.217029 C96.4082525,140.362759 94.6078971,139.632737 93.4076601,138.464154 C92.0577466,137.004112 91.4576281,135.105507 91.6073047,133.061173 L91.6073047,29.227707 C91.6073047,19.1503919 92.6578651,11.8488065 94.9086624,7.1758468 C96.8586944,2.64861639 101.509966,-0.271467848 106.610267,0.019990654 C114.561483,0.019990654 118.611224,5.27724212 118.611224,15.9388491 C118.611224,28.0591234 114.410395,37.4064175 106.010148,43.6851486 L117.410987,43.6851486 C118.611224,43.5394193 119.811461,43.8308778 120.712345,44.5622737 C121.161375,45.5837532 121.460728,46.7523369 121.311051,47.9209205 Z" id="Shape" fill="#663366" fill-rule="nonzero"></path>
                        <path d="M124.983278,74.9676204 L124.983278,94.8407638 C123.964006,96.0734991 122.363858,96.6898668 120.90756,96.5346871 C119.160824,96.6884165 117.414088,95.9183195 116.249597,94.5318548 C114.939888,92.9916608 114.357642,90.9888285 114.502861,88.8322669 L114.502861,43.3849419 C115.522133,42.1522065 117.12228,41.3821095 118.578579,41.6910185 C120.033507,41.5372892 121.635024,42.1536568 122.799515,43.0774832 C124.109224,44.1564891 124.838059,45.6966831 125.128496,47.2368771 L125.128496,56.7884003 C129.058995,46.4667801 134.444422,41.3821095 141.429996,41.3821095 C146.378397,41.3821095 150.017088,42.7685742 152.20085,45.5415035 C154.529832,48.3144328 155.694322,51.8574591 155.694322,55.555665 C155.694322,57.404768 155.112077,59.0986913 153.947586,60.485156 C153.073533,61.5641619 151.910413,62.1790793 150.600703,62.3342589 C148.562159,62.3342589 147.25245,61.8716206 146.524986,60.7940649 C147.107231,59.1001416 147.25245,57.2510386 147.25245,55.4019357 C147.25245,53.0916447 146.524986,50.7799034 145.070057,49.0859801 C143.760348,47.3920567 141.721804,46.3130508 139.68463,46.3130508 C136.045939,46.3130508 132.697686,49.8560771 129.787829,56.9435799 C126.875232,64.0296325 124.983278,70.0366792 124.983278,74.9676204 Z" id="Path" fill="#663366"></path>
                        <path d="M167.392115,70.760145 L167.392115,71.803131 C172.164536,71.3567386 176.781933,69.7157553 180.78358,67.031786 C184.631653,64.4966142 186.786052,60.3218628 186.478901,55.8481128 C186.632477,53.312941 185.863152,50.7777691 184.323054,48.6903934 C182.784404,47.0494101 180.628556,46.1552216 178.320582,46.3040191 C174.626085,46.1552216 171.240187,48.3913948 169.855113,51.8207551 C168.161439,55.5519216 167.392115,61.8140487 167.392115,70.760145 Z M208.028686,68.971768 C209.72236,68.971768 210.64526,70.3137526 210.64526,72.8489245 C210.64526,78.8134566 208.335837,84.6291913 204.180614,89.1029414 C199.870367,94.0230838 193.405722,96.5582556 184.631653,96.5582556 C175.857584,96.5582556 168.930764,94.3220825 163.544042,89.6995349 C158.310896,85.2257849 155.694322,78.5158617 155.694322,69.5697653 C155.694322,60.623669 158.003745,53.912342 162.621142,48.8434022 C167.084964,43.9232597 173.704634,41.2378867 180.47643,41.3880879 C185.709577,41.3880879 189.557649,42.7300725 191.867072,45.4140418 C194.33007,48.0980111 195.561569,51.5273714 195.561569,54.9581355 C195.715144,60.9226677 192.791421,66.5882011 187.711849,70.1677627 C182.478703,74.1937166 175.859033,76.1322948 167.855738,76.1322948 C168.625063,81.3500322 170.472311,85.2271886 173.706083,87.7623605 C177.245556,90.4463297 181.555803,91.9385156 186.019625,91.6395169 C191.252771,91.6395169 196.178768,89.5521412 199.873265,85.9725797 C204.029936,82.2442207 206.03076,76.7274847 206.03076,69.4209679 C206.335013,69.2693629 206.950762,68.971768 208.028686,68.971768 Z" id="Shape" fill="#663366" fill-rule="nonzero"></path>
                        <path d="M253.009194,4.72667332 C251.387293,4.72667332 250.209368,6.49592092 249.913847,10.3272092 C249.619713,14.1598852 249.324191,22.2665083 249.324191,35.091125 C254.778161,28.1626127 257.430919,21.235488 257.430919,14.7496344 C257.283852,7.96960009 255.957473,4.72667332 253.009194,4.72667332 Z M225.886408,91.8416497 C228.834688,91.8416497 231.634513,90.2194925 234.288659,86.9779533 C237.088484,83.4394581 238.41625,79.0184206 238.267795,74.5959955 L238.267795,59.2652916 C238.414863,56.0223648 237.531072,52.779438 235.46797,50.1262605 C233.84607,48.0628321 231.487446,46.8833337 228.834688,46.8833337 C226.918653,46.8833337 224.854164,47.0304241 222.938129,47.4730829 C221.317616,48.0628321 219.989849,48.9467621 218.810537,50.1262605 C216.304847,52.779438 214.978468,58.8226328 214.978468,68.5514131 C214.978468,78.133103 216.157779,84.6175689 218.367949,87.7134053 C219.991237,90.2194925 222.791062,91.8416497 225.886408,91.8416497 Z M203.776393,68.5514131 C203.776393,59.412382 205.987949,52.779438 210.262608,48.5041033 C214.537266,44.2301561 220.286758,42.1653401 227.508309,42.3138181 C231.340379,42.1667277 235.173836,43.0506577 238.41625,45.1140861 L238.41625,28.9008399 C238.41625,18.8764912 239.448495,11.5080953 241.511597,6.93857973 C243.576086,2.36906417 247.408156,0.0100673801 252.860739,0.0100673801 C255.661951,-0.137023008 258.461777,1.33665617 259.93661,3.84274335 C261.558511,6.34883053 262.442301,10.0330285 262.442301,14.7496344 C262.442301,23.2989163 258.019188,31.9966763 249.175736,40.840139 L249.175736,78.2801934 C249.175736,82.8497089 249.912459,86.2397261 251.53436,88.5987229 C252.860739,90.8092417 255.219363,92.1358304 257.725053,91.9887401 C260.230744,91.9887401 262.736435,90.3665828 265.095059,87.2721341 C267.453682,84.1762977 268.632994,79.1641234 268.632994,72.2369987 C268.632994,70.7633195 268.632994,69.5838211 268.485927,68.6998911 C268.485927,68.2572323 269.075583,67.9630515 270.254895,67.9630515 C271.728341,67.9630515 272.465064,70.0264799 272.465064,74.3018147 C272.465064,80.9347586 270.991618,86.2411137 268.043338,90.3679705 C265.537648,94.2006465 261.115922,96.5582556 256.545742,96.5582556 C247.996424,96.5582556 242.395387,92.8740577 239.741242,85.3557961 C238.414863,88.4516325 236.203306,91.2519005 233.550548,93.4624192 C231.044857,95.5258476 227.94951,96.556868 224.705709,96.556868 C210.703809,96.4111652 203.776393,87.1250437 203.776393,68.5514131 Z" id="Shape" fill="#663366" fill-rule="nonzero"></path>
                        <path d="M45.7924478,43.6811156 C43.7983278,42.1484449 41.5810166,41.3821095 38.9235806,41.3821095 C41.3599112,42.1502481 43.5751365,42.9147803 45.7924478,43.6811156 Z" id="Path" fill="#663366"></path>
                        <path d="M66.6087635,68.328401 C65.4297737,68.328401 64.8402788,68.6172396 64.8402788,69.0518601 C64.8402788,84.2485884 61.1562824,91.9191622 53.6412626,91.9191622 C51.136256,91.9191622 48.9253033,90.6166633 47.7463135,88.4449236 C46.2732697,86.1287645 45.5353608,82.8003077 45.5353608,78.3151338 L45.5353608,70.64456 C44.209344,70.0655203 39.4933848,68.1839817 34.6303985,66.302443 L34.6303985,75.9989748 C34.7774255,80.19531 33.3043818,84.2485884 30.3569072,87.4326258 C27.5578467,90.3264622 24.9044261,91.7747428 22.5464464,91.7747428 C20.4839078,91.9191622 18.5683961,91.3401224 16.7999114,90.472244 C15.3268676,89.6043656 14.1478778,87.4339883 12.968888,83.9597497 C11.6428712,79.328794 11.2004033,74.4076373 11.3474302,69.6322623 C11.3474302,65.7247657 11.6414842,62.3963089 12.0839521,59.6455294 C7.66343381,58.6332317 3.53696945,57.7639908 1.76848473,57.4751521 C0.736521874,60.9493907 0,64.8568873 0,69.6322623 C0,87.5784076 6.92552489,96.5514803 20.9249887,96.5514803 C24.1665172,96.5514803 27.2610187,95.5391825 29.9130522,93.8020632 C32.5650858,91.7761053 34.7760385,89.1711076 36.1020552,86.1314894 C38.7540888,93.0786041 44.059543,96.5514803 52.0170307,96.5514803 C56.8800169,96.6958996 61.4489493,94.5255223 64.2480098,90.6180258 C67.1954843,86.7105292 68.6699151,81.3561144 68.6699151,74.6978384 C68.8183291,70.3543589 68.0818073,68.328401 66.6087635,68.328401 Z" id="Path" fill="#663366"></path>
                        <path d="M47.6322125,68.9352672 C47.6322125,68.9352672 31.8020782,62.6014901 26.2820366,61.0861022 C20.7633619,59.5720106 3.18890544,55.9915987 3.18890544,55.9915987 C2.60792038,55.8541897 2.17183982,55.1658484 2.31811136,54.6149161 L11.4676009,35.3374705 C11.6125054,34.7865382 12.339762,34.3743112 12.91938,34.5117202 C19.6000248,35.6135849 26.2806695,37.1276765 32.8164098,39.0552914 C39.2072455,40.9829063 45.5967142,43.3240446 51.8426454,45.9400008 C52.4236305,46.2148188 52.859711,46.7670474 52.568535,47.4540924 C51.2616604,52.5485959 49.0826246,68.2469259 49.0826246,68.2469259 C48.9390871,68.7965619 48.2131975,69.0726762 47.6322125,68.9352672 Z" id="Path" fill="#663366"></path>
                        <path d="M47.013428,55.1365963 C47.013428,55.1365963 33.7698073,50.1082643 29.0621032,48.7367706 C24.3530141,47.3652769 9.78530835,43.2507958 9.78530835,43.2507958 C9.34348498,43.0987264 9.04985943,42.6410836 9.19667221,42.0313715 C9.34348498,41.5737287 9.78530835,41.2695899 10.3739445,41.4216593 C10.3739445,41.4216593 24.9416502,45.384071 29.5039266,46.7555647 C34.0648179,48.1270584 47.4552513,53.3074598 47.4552513,53.3074598 C47.8970747,53.4595292 48.1907003,53.917172 48.0438875,54.5268841 C48.0438875,54.9845269 47.4552513,55.2886657 47.013428,55.1365963 Z" id="Path" fill="#F9B238"></path>
                        <path d="M44.5745319,62.0357928 C44.5745319,62.0357928 30.5671589,57.1255957 25.5543153,55.5378022 C20.5414716,53.9486493 5.20733269,50.049855 5.20733269,50.049855 C4.76461477,49.9057573 4.47039471,49.4721047 4.61750474,48.8943545 C4.76461477,48.460702 5.35444272,48.1725066 5.79716064,48.3166043 C5.79716064,48.3166043 21.1312995,52.2153987 26.1441432,53.8045516 C31.1569869,55.3923451 45.1643598,60.3025422 45.1643598,60.3025422 C45.6070778,60.4466399 45.9012978,60.8802924 45.7541878,61.4580426 C45.6056899,61.8903357 45.015862,62.1798905 44.5745319,62.0357928 Z" id="Path" fill="#F9B238"></path>
                    </g>
                    <path d="M49.3600628,94.6710225 C48.3212183,95.812744 47.4322146,96.3541348 45.5517571,96.2951948 C41.4630385,96.2951948 41.598407,89.8388353 41.3926848,84.9151777 L41.3921572,62.9316417 C41.0201737,54.2145181 37.7866051,48.5631433 32.8327459,47.1188115 C27.0483958,45.4323444 21.340161,50.9809662 21.3921182,57.4283854 C21.4082286,59.4275395 21.4162838,71.8417518 21.4162838,94.6710225 C20.3774393,95.812744 19.4884355,96.3541348 17.607978,96.2951948 C13.5279149,96.2951948 13.6632798,89.8388353 13.4488951,84.9151777 C13.4276857,71.7397597 13.4144573,65.0726796 13.4092097,64.9139373 C13.0517965,54.1020198 12.1251316,47.2270294 9.73322024,46.5481643 C4.56666464,45.0818081 7.02553537,55.1761461 2.55703074,55.1761461 C-1.91147388,55.1761461 -0.422757865,41.6572476 8.85228695,41.6572476 C8.95579644,41.6572476 11.3411592,41.6582299 9.16060839,41.6601946 L9.73322024,41.6572476 C14.5461387,41.6572476 16.8268918,44.3409432 18.7922438,50.2264918 C19.1693757,48.7905675 19.9847841,47.9162705 20.3986662,47.3391523 C21.331841,46.0379309 23.5057441,43.7696029 27.4622776,42.5424586 C31.4188111,41.3153142 36.3154298,41.6761103 39.0580429,42.9899805 C40.9275502,43.8855826 44.4611021,46.4119961 46.8847643,51.9560998 C47.0209641,49.6855613 47.8491608,48.7067898 48.2845166,47.9162705 C49.25925,46.1463494 51.4748351,43.7696029 55.4313686,42.5424586 C59.387902,41.3153142 64.2845208,41.6761103 67.0271339,42.9899805 C69.7589456,44.2986762 77.262366,49.0895498 77.3214263,61.6898241 L77.301684,94.6710225 C76.2628395,95.812744 75.3738357,96.3541348 73.4933783,96.2951948 C69.4091008,96.2951948 69.5446951,89.8388353 69.3349832,84.9151777 L69.3612482,62.9316417 C68.9892646,54.2145181 65.1850488,47.992496 60.2311896,46.5481643 C54.4468395,44.8616972 49.0720974,50.9881719 49.3523353,57.4283854 C49.3613042,57.6345004 49.36388,70.0487128 49.3600628,94.6710225 Z" id="Path-Copy-6" fill="#BEBEBE"></path>
                    <path d="M95.8697357,96.6981022 C83.9647598,96.6981022 80.9214958,88.446394 81.0334713,71.9429776 L81.054393,49.0756615 L81.054393,43.2857598 C82.0932375,42.1440383 83.5528885,41.6026476 85.433346,41.6615876 C89.5198921,41.6615876 88.8137665,49.8394178 89.0214415,54.7821338 L89.0255192,54.7821338 L89.0255192,71.9015506 C89.0238964,71.915333 89.0239013,71.929142 89.0239013,71.9429776 C89.0239013,81.9622369 89.0239013,91.9814962 98.8414715,91.9814962 C101.596089,91.9814962 104.136764,90.1004963 106.463496,86.3384964 L106.463496,43.2857598 C107.502341,42.1440383 108.961992,41.6026476 110.842449,41.6615876 C114.912809,41.6615876 114.20583,44.2266381 114.427986,49.0470741 L114.443225,113.558798 C114.443225,138.563202 102.79555,139.781202 98.8414715,139.742079 C92.5181904,139.679514 89.4688804,138.444651 86.7164128,134.76221 C81.8634322,128.269558 84.9444597,121.830367 87.5173558,119.4302 C90.0902518,117.030033 94.2640566,115.7762 97.2078646,117.071091 C98.9299148,117.828567 100.280614,119.455284 99.7370904,121.559642 C99.2733722,123.355019 97.2078646,124.206246 95.3148031,124.206246 C91.6308665,124.206246 88.9331363,125.616021 88.9331363,128.743676 C88.9331363,132.000998 91.6651022,135.401067 97.2078646,134.76221 C102.424094,134.160989 106.472099,127.784626 106.472099,118.151107 L106.472099,108.82528 L106.463496,108.82528 L106.463496,92.9065296 C103.476014,95.4342427 99.9447608,96.6981022 95.8697357,96.6981022 Z" id="Path-Copy-5" fill="#BEBEBE"></path>
                </g>
            </g>
        </g>
    </g>
</svg>