<?xml version="1.0" encoding="UTF-8"?>
<svg width="225px" height="152px" viewBox="0 0 225 152" version="1.1" xmlns="http://www.w3.org/2000/svg" xmlns:xlink="http://www.w3.org/1999/xlink">
    <!-- Generator: Sketch 52.2 (67145) - http://www.bohemiancoding.com/sketch -->
    <title>platba-icon</title>
    <desc>Created with Sketch.</desc>
    <defs>
        <rect id="path-1" x="0.778755575" y="0.335696408" width="54" height="97" rx="6"></rect>
    </defs>
    <g id="Page-V5" stroke="none" stroke-width="1" fill="none" fill-rule="evenodd">
        <g id="Desktop---platba---V5" transform="translate(-720.000000, -1305.000000)">
            <g id="platba-icon" transform="translate(720.000000, 1306.000000)">
                <g id="Group-17" transform="translate(139.000000, 0.000000)" stroke="#663366" stroke-linecap="round" stroke-width="2">
                    <polyline id="Path-7" points="37 42.8461538 41.1052632 47 50 38"></polyline>
                    <path d="M61.9416327,44.0200155 C61.9803052,43.5184216 62,43.0115108 62,42.5 C62,31.7304474 53.2695526,23 42.5,23 C31.7304474,23 23,31.7304474 23,42.5 C23,53.2695526 31.7304474,62 42.5,62 C43.0015181,62 43.4986142,61.9810672 43.9906126,61.9438774" id="Path" transform="translate(42.500000, 42.500000) scale(-1, 1) translate(-42.500000, -42.500000) "></path>
                    <path d="M70.9623921,43.9769052 C70.9873624,43.4877583 71,42.995355 71,42.5 C71,26.7598846 58.2401154,14 42.5,14 C26.7598846,14 14,26.7598846 14,42.5 C14,58.2401154 26.7598846,71 42.5,71 C43.0326856,71 43.5619578,70.9853859 44.0874377,70.9565367" id="Path" transform="translate(42.500000, 42.500000) scale(-1, 1) translate(-42.500000, -42.500000) "></path>
                    <path d="M84.973698,44.0093615 C84.9911842,43.508397 85,43.005228 85,42.5 C85,19.0278981 65.9721019,0 42.5,0 C19.0278981,0 0,19.0278981 0,42.5 C0,65.9721019 19.0278981,85 42.5,85 C42.97052,85 43.4392542,84.9923538 43.9060851,84.977179" id="Path" transform="translate(42.500000, 42.500000) scale(-1, 1) translate(-42.500000, -42.500000) "></path>
                </g>
                <g id="Group-4" transform="translate(119.000000, 50.000000)">
                    <g id="Rectangle">
                        <rect stroke="#663366" stroke-width="2" stroke-linejoin="square" fill="#FFFFFF" fill-rule="evenodd" x="1.77875557" y="1.33569641" width="52" height="95" rx="6"></rect>
                        <rect stroke="#FFFFFF" stroke-width="3" x="-0.721244425" y="-1.16430359" width="57" height="100" rx="6"></rect>
                    </g>
                    <rect id="Rectangle" stroke="#663366" stroke-width="2" x="7" y="16" width="42" height="66" rx="2"></rect>
                    <g id="Group-5-Copy-2" transform="translate(12.000000, 25.000000)">
                        <rect id="Rectangle-Copy-2" stroke="#663366" stroke-width="2" fill="#FFFFFF" x="1" y="1" width="30" height="47" rx="3"></rect>
                        <g id="Group-3" transform="translate(9.000000, 17.000000)" fill="#663366">
                            <rect id="Rectangle" x="0" y="0" width="3" height="3" rx="1.5"></rect>
                            <rect id="Rectangle-Copy" x="5.5" y="0" width="3" height="3" rx="1.5"></rect>
                            <rect id="Rectangle-Copy-3" x="11" y="0" width="3" height="3" rx="1.5"></rect>
                        </g>
                        <path d="M16,33 L6.84125697,33" id="Path-13-Copy-5" stroke="#663366" stroke-width="2" stroke-linecap="round"></path>
                        <path d="M25.2281198,37 L6.84125697,37" id="Path-13-Copy-6" stroke="#663366" stroke-width="2" stroke-linecap="round"></path>
                        <path d="M25.2281198,41 L6.84125697,41" id="Path-13-Copy-7" stroke="#663366" stroke-width="2" stroke-linecap="round"></path>
                    </g>
                    <rect id="Rectangle-Copy-41" stroke="#663366" stroke-width="2" x="25.7787556" y="87.3356964" width="4" height="4" rx="2"></rect>
                    <rect id="Rectangle-Copy-31" fill="#663366" x="22.7787556" y="8.33569641" width="10" height="2" rx="1"></rect>
                </g>
                <g id="Group-5" opacity="0.2" transform="translate(0.000000, 75.000000)" stroke="#663366" stroke-width="2">
                    <rect id="Rectangle-Copy-2" fill="#FFFFFF" x="1" y="1" width="30" height="47" rx="3"></rect>
                    <path d="M16,33 L6.84125697,33" id="Path-13-Copy-5" stroke-linecap="round"></path>
                    <path d="M25.2281198,37 L6.84125697,37" id="Path-13-Copy-6" stroke-linecap="round"></path>
                    <path d="M25.2281198,41 L6.84125697,41" id="Path-13-Copy-7" stroke-linecap="round"></path>
                    <polyline id="Path-7" stroke-linecap="round" points="10 17.8461538 14.1052632 22 23 13"></polyline>
                </g>
                <g id="Group-5-Copy" opacity="0.2" transform="translate(40.000000, 75.000000)" stroke="#663366" stroke-width="2">
                    <rect id="Rectangle-Copy-2" fill="#FFFFFF" x="1" y="1" width="30" height="47" rx="3"></rect>
                    <path d="M16,33 L6.84125697,33" id="Path-13-Copy-5" stroke-linecap="round"></path>
                    <path d="M25.2281198,37 L6.84125697,37" id="Path-13-Copy-6" stroke-linecap="round"></path>
                    <path d="M25.2281198,41 L6.84125697,41" id="Path-13-Copy-7" stroke-linecap="round"></path>
                    <polyline id="Path-7" stroke-linecap="round" points="10 17.8461538 14.1052632 22 23 13"></polyline>
                </g>
                <g id="Group-5-Copy-2" opacity="0.2" transform="translate(80.000000, 75.000000)" stroke="#663366" stroke-width="2">
                    <rect id="Rectangle-Copy-2" fill="#FFFFFF" x="1" y="1" width="30" height="47" rx="3"></rect>
                    <path d="M16,33 L6.84125697,33" id="Path-13-Copy-5" stroke-linecap="round"></path>
                    <path d="M25.2281198,37 L6.84125697,37" id="Path-13-Copy-6" stroke-linecap="round"></path>
                    <path d="M25.2281198,41 L6.84125697,41" id="Path-13-Copy-7" stroke-linecap="round"></path>
                    <polyline id="Path-7" stroke-linecap="round" points="10 17.8461538 14.1052632 22 23 13"></polyline>
                </g>
            </g>
        </g>
    </g>
</svg>