<?xml version="1.0" encoding="UTF-8"?>
<svg width="134px" height="82px" viewBox="0 0 134 82" version="1.1" xmlns="http://www.w3.org/2000/svg" xmlns:xlink="http://www.w3.org/1999/xlink">
    <!-- Generator: Sketch 52.2 (67145) - http://www.bohemiancoding.com/sketch -->
    <title>recenze-icon</title>
    <desc>Created with Sketch.</desc>
    <g id="Page-V5" stroke="none" stroke-width="1" fill="none" fill-rule="evenodd">
        <g id="Desktop--recenze---V5" transform="translate(-720.000000, -1330.000000)">
            <g id="recenze-icon" transform="translate(720.000000, 1330.000000)">
                <path d="M125.358055,12.8603516 L121.182274,12.2539063 C121.124657,12.2451172 121.073875,12.2080079 121.047508,12.1552735 L119.180321,8.3710938 C118.810203,7.6220704 118.062157,7.15625 117.226219,7.15625 C116.390282,7.15625 115.642235,7.6220703 115.272117,8.3710938 L113.402977,12.15625 C113.377586,12.2089844 113.327782,12.2451172 113.269188,12.2539063 L109.093407,12.8603516 C108.266258,12.9804688 107.59243,13.5488282 107.333641,14.34375 C107.075828,15.1376953 107.286766,15.9941406 107.885399,16.5771484 L110.906883,19.5224609 C110.949852,19.5644531 110.968407,19.6220703 110.958641,19.6816406 L110.24575,23.8408203 C110.104149,24.6640625 110.437157,25.4814453 111.112938,25.9726562 C111.789696,26.4638671 112.667625,26.5273437 113.40786,26.1376953 L117.142235,24.1738281 C117.194969,24.1464843 117.258446,24.1464843 117.309227,24.1738281 L121.043602,26.1376953 C121.365868,26.3076172 121.713524,26.390625 122.060204,26.390625 C122.510399,26.390625 122.957664,26.25 123.3395,25.9726562 C124.015282,25.4814453 124.34829,24.6640624 124.206688,23.8408203 L123.492821,19.6816406 C123.483055,19.6240234 123.502586,19.5644531 123.545555,19.5224609 L126.56704,16.5771484 C127.165672,15.9941406 127.37661,15.1376953 127.117821,14.34375 C126.860008,13.5488281 126.185204,12.9804688 125.358055,12.8603516 Z M125.170555,15.1455078 L122.149071,18.0908203 C121.635399,18.5917969 121.401024,19.3125 121.522118,20.0195312 L122.235985,24.1787109 C122.239891,24.2060547 122.254539,24.2880859 122.163719,24.3544922 C122.075829,24.4189453 121.999657,24.3798828 121.975243,24.3681641 L118.239891,22.4042969 C117.922508,22.2373047 117.574852,22.1533203 117.226219,22.1533203 C116.877586,22.1533203 116.52993,22.2373047 116.211571,22.4042969 L112.476219,24.3681641 C112.452782,24.3798829 112.378563,24.4189454 112.288719,24.3544922 C112.197899,24.2890625 112.212547,24.2060547 112.216453,24.1787109 L112.929344,20.0195312 C113.050438,19.3124999 112.816063,18.5908203 112.303367,18.0908203 L109.281883,15.1455078 C109.262352,15.1259765 109.201805,15.0673828 109.235985,14.9609375 C109.271141,14.8554687 109.353172,14.8427734 109.380516,14.8388672 L113.556297,14.2324219 C114.267235,14.1298828 114.880516,13.6835938 115.196922,13.0400391 L117.065086,9.2558594 C117.077782,9.2314453 117.114891,9.15625 117.226219,9.15625 C117.337547,9.15625 117.374657,9.2314453 117.387352,9.2558594 L119.254539,13.0410157 C119.572899,13.6845704 120.18618,14.1298829 120.895164,14.232422 L125.070946,14.8388673 C125.09829,14.8427736 125.181297,14.8554689 125.216454,14.9619142 C125.250633,15.0673828 125.190086,15.1259766 125.170555,15.1455078 Z" id="Shape" fill="#663366" fill-rule="nonzero"></path>
                <path d="M93.3580551,12.8603516 L89.1822738,12.2539063 C89.1246566,12.2451172 89.0738754,12.2080079 89.0475082,12.1552735 L87.1803207,8.3710938 C86.8102035,7.6220704 86.0621566,7.15625 85.2262191,7.15625 C84.3902816,7.15625 83.6422347,7.6220703 83.2721175,8.3710938 L81.402977,12.15625 C81.3775864,12.2089844 81.3277817,12.2451172 81.2691879,12.2539063 L77.0934066,12.8603516 C76.2662582,12.9804688 75.59243,13.5488282 75.333641,14.34375 C75.0758285,15.1376953 75.286766,15.9941406 75.8853988,16.5771484 L78.9068832,19.5224609 C78.949852,19.5644531 78.9684066,19.6220703 78.958641,19.6816406 L78.2457504,23.8408203 C78.1041488,24.6640625 78.4371567,25.4814453 79.1129379,25.9726562 C79.7896957,26.4638671 80.6676254,26.5273437 81.4078598,26.1376953 L85.1422348,24.1738281 C85.1949692,24.1464843 85.2584457,24.1464843 85.309227,24.1738281 L89.043602,26.1376953 C89.3658676,26.3076172 89.7135239,26.390625 90.0602036,26.390625 C90.5103989,26.390625 90.9576645,26.25 91.3395005,25.9726562 C92.0152818,25.4814453 92.3482896,24.6640624 92.206688,23.8408203 L91.4928208,19.6816406 C91.4830552,19.6240234 91.5025864,19.5644531 91.5455552,19.5224609 L94.5670396,16.5771484 C95.1656724,15.9941406 95.3766099,15.1376953 95.1178209,14.34375 C94.8600082,13.5488281 94.1852036,12.9804688 93.3580551,12.8603516 Z M93.1705551,15.1455078 L90.1490707,18.0908203 C89.6353988,18.5917969 89.4010238,19.3125 89.5221176,20.0195312 L90.2359848,24.1787109 C90.2398911,24.2060547 90.2545395,24.2880859 90.1637192,24.3544922 C90.0758286,24.4189453 89.9996567,24.3798828 89.9752426,24.3681641 L86.239891,22.4042969 C85.9225082,22.2373047 85.5748519,22.1533203 85.2262191,22.1533203 C84.8775863,22.1533203 84.52993,22.2373047 84.2115707,22.4042969 L80.4762191,24.3681641 C80.4527816,24.3798829 80.3785628,24.4189454 80.2887191,24.3544922 C80.1978988,24.2890625 80.2125472,24.2060547 80.2164535,24.1787109 L80.9293441,20.0195312 C81.0504379,19.3124999 80.8160628,18.5908203 80.3033675,18.0908203 L77.2818831,15.1455078 C77.2623518,15.1259765 77.201805,15.0673828 77.2359847,14.9609375 C77.271141,14.8554687 77.3531722,14.8427734 77.380516,14.8388672 L81.5562973,14.2324219 C82.2672348,14.1298828 82.8805161,13.6835938 83.1969223,13.0400391 L85.0650864,9.2558594 C85.0777817,9.2314453 85.1148911,9.15625 85.2262192,9.15625 C85.3375473,9.15625 85.3746567,9.2314453 85.387352,9.2558594 L87.2545395,13.0410157 C87.5728989,13.6845704 88.1861801,14.1298829 88.8951645,14.232422 L93.0709458,14.8388673 C93.0982896,14.8427736 93.1812974,14.8554689 93.2164536,14.9619142 C93.2506332,15.0673828 93.1900864,15.1259766 93.1705551,15.1455078 Z" id="Shape-Copy" fill="#663366" fill-rule="nonzero" opacity="0.2"></path>
                <path d="M68.3580551,12.8603516 L64.1822738,12.2539063 C64.1246566,12.2451172 64.0738754,12.2080079 64.0475082,12.1552735 L62.1803207,8.3710938 C61.8102035,7.6220704 61.0621566,7.15625 60.2262191,7.15625 C59.3902816,7.15625 58.6422347,7.6220703 58.2721175,8.3710938 L56.402977,12.15625 C56.3775864,12.2089844 56.3277817,12.2451172 56.2691879,12.2539063 L52.0934066,12.8603516 C51.2662582,12.9804688 50.59243,13.5488282 50.333641,14.34375 C50.0758285,15.1376953 50.286766,15.9941406 50.8853988,16.5771484 L53.9068832,19.5224609 C53.949852,19.5644531 53.9684066,19.6220703 53.958641,19.6816406 L53.2457504,23.8408203 C53.1041488,24.6640625 53.4371567,25.4814453 54.1129379,25.9726562 C54.7896957,26.4638671 55.6676254,26.5273437 56.4078598,26.1376953 L60.1422348,24.1738281 C60.1949692,24.1464843 60.2584457,24.1464843 60.309227,24.1738281 L64.043602,26.1376953 C64.3658676,26.3076172 64.7135239,26.390625 65.0602036,26.390625 C65.5103989,26.390625 65.9576645,26.25 66.3395005,25.9726562 C67.0152818,25.4814453 67.3482896,24.6640624 67.206688,23.8408203 L66.4928208,19.6816406 C66.4830552,19.6240234 66.5025864,19.5644531 66.5455552,19.5224609 L69.5670396,16.5771484 C70.1656724,15.9941406 70.3766099,15.1376953 70.1178209,14.34375 C69.8600082,13.5488281 69.1852036,12.9804688 68.3580551,12.8603516 Z M68.1705551,15.1455078 L65.1490707,18.0908203 C64.6353988,18.5917969 64.4010238,19.3125 64.5221176,20.0195312 L65.2359848,24.1787109 C65.2398911,24.2060547 65.2545395,24.2880859 65.1637192,24.3544922 C65.0758286,24.4189453 64.9996567,24.3798828 64.9752426,24.3681641 L61.239891,22.4042969 C60.9225082,22.2373047 60.5748519,22.1533203 60.2262191,22.1533203 C59.8775863,22.1533203 59.52993,22.2373047 59.2115707,22.4042969 L55.4762191,24.3681641 C55.4527816,24.3798829 55.3785628,24.4189454 55.2887191,24.3544922 C55.1978988,24.2890625 55.2125472,24.2060547 55.2164535,24.1787109 L55.9293441,20.0195312 C56.0504379,19.3124999 55.8160628,18.5908203 55.3033675,18.0908203 L52.2818831,15.1455078 C52.2623518,15.1259765 52.201805,15.0673828 52.2359847,14.9609375 C52.271141,14.8554687 52.3531722,14.8427734 52.380516,14.8388672 L56.5562973,14.2324219 C57.2672348,14.1298828 57.8805161,13.6835938 58.1969223,13.0400391 L60.0650864,9.2558594 C60.0777817,9.2314453 60.1148911,9.15625 60.2262192,9.15625 C60.3375473,9.15625 60.3746567,9.2314453 60.387352,9.2558594 L62.2545395,13.0410157 C62.5728989,13.6845704 63.1861801,14.1298829 63.8951645,14.232422 L68.0709458,14.8388673 C68.0982896,14.8427736 68.1812974,14.8554689 68.2164536,14.9619142 C68.2506332,15.0673828 68.1900864,15.1259766 68.1705551,15.1455078 Z" id="Shape-Copy-2" fill="#663366" fill-rule="nonzero" opacity="0.2"></path>
                <path d="M43.3580551,12.8603516 L39.1822738,12.2539063 C39.1246566,12.2451172 39.0738754,12.2080079 39.0475082,12.1552735 L37.1803207,8.3710938 C36.8102035,7.6220704 36.0621566,7.15625 35.2262191,7.15625 C34.3902816,7.15625 33.6422347,7.6220703 33.2721175,8.3710938 L31.402977,12.15625 C31.3775864,12.2089844 31.3277817,12.2451172 31.2691879,12.2539063 L27.0934066,12.8603516 C26.2662582,12.9804688 25.59243,13.5488282 25.333641,14.34375 C25.0758285,15.1376953 25.286766,15.9941406 25.8853988,16.5771484 L28.9068832,19.5224609 C28.949852,19.5644531 28.9684066,19.6220703 28.958641,19.6816406 L28.2457504,23.8408203 C28.1041488,24.6640625 28.4371567,25.4814453 29.1129379,25.9726562 C29.7896957,26.4638671 30.6676254,26.5273437 31.4078598,26.1376953 L35.1422348,24.1738281 C35.1949692,24.1464843 35.2584457,24.1464843 35.309227,24.1738281 L39.043602,26.1376953 C39.3658676,26.3076172 39.7135239,26.390625 40.0602036,26.390625 C40.5103989,26.390625 40.9576645,26.25 41.3395005,25.9726562 C42.0152818,25.4814453 42.3482896,24.6640624 42.206688,23.8408203 L41.4928208,19.6816406 C41.4830552,19.6240234 41.5025864,19.5644531 41.5455552,19.5224609 L44.5670396,16.5771484 C45.1656724,15.9941406 45.3766099,15.1376953 45.1178209,14.34375 C44.8600082,13.5488281 44.1852036,12.9804688 43.3580551,12.8603516 Z M43.1705551,15.1455078 L40.1490707,18.0908203 C39.6353988,18.5917969 39.4010238,19.3125 39.5221176,20.0195312 L40.2359848,24.1787109 C40.2398911,24.2060547 40.2545395,24.2880859 40.1637192,24.3544922 C40.0758286,24.4189453 39.9996567,24.3798828 39.9752426,24.3681641 L36.239891,22.4042969 C35.9225082,22.2373047 35.5748519,22.1533203 35.2262191,22.1533203 C34.8775863,22.1533203 34.52993,22.2373047 34.2115707,22.4042969 L30.4762191,24.3681641 C30.4527816,24.3798829 30.3785628,24.4189454 30.2887191,24.3544922 C30.1978988,24.2890625 30.2125472,24.2060547 30.2164535,24.1787109 L30.9293441,20.0195312 C31.0504379,19.3124999 30.8160628,18.5908203 30.3033675,18.0908203 L27.2818831,15.1455078 C27.2623518,15.1259765 27.201805,15.0673828 27.2359847,14.9609375 C27.271141,14.8554687 27.3531722,14.8427734 27.380516,14.8388672 L31.5562973,14.2324219 C32.2672348,14.1298828 32.8805161,13.6835938 33.1969223,13.0400391 L35.0650864,9.2558594 C35.0777817,9.2314453 35.1148911,9.15625 35.2262192,9.15625 C35.3375473,9.15625 35.3746567,9.2314453 35.387352,9.2558594 L37.2545395,13.0410157 C37.5728989,13.6845704 38.1861801,14.1298829 38.8951645,14.232422 L43.0709458,14.8388673 C43.0982896,14.8427736 43.1812974,14.8554689 43.2164536,14.9619142 C43.2506332,15.0673828 43.1900864,15.1259766 43.1705551,15.1455078 Z" id="Shape-Copy-3" fill="#663366" fill-rule="nonzero" opacity="0.2"></path>
                <path d="M18.3580551,12.8603516 L14.1822738,12.2539063 C14.1246566,12.2451172 14.0738754,12.2080079 14.0475082,12.1552735 L12.1803207,8.3710938 C11.8102035,7.6220704 11.0621566,7.15625 10.2262191,7.15625 C9.3902816,7.15625 8.6422347,7.6220703 8.2721175,8.3710938 L6.402977,12.15625 C6.3775864,12.2089844 6.3277817,12.2451172 6.2691879,12.2539063 L2.0934066,12.8603516 C1.2662582,12.9804688 0.59243,13.5488282 0.333641,14.34375 C0.0758285,15.1376953 0.286766,15.9941406 0.8853988,16.5771484 L3.9068832,19.5224609 C3.949852,19.5644531 3.9684066,19.6220703 3.958641,19.6816406 L3.2457504,23.8408203 C3.1041488,24.6640625 3.4371567,25.4814453 4.1129379,25.9726562 C4.7896957,26.4638671 5.6676254,26.5273437 6.4078598,26.1376953 L10.1422348,24.1738281 C10.1949692,24.1464843 10.2584457,24.1464843 10.309227,24.1738281 L14.043602,26.1376953 C14.3658676,26.3076172 14.7135239,26.390625 15.0602036,26.390625 C15.5103989,26.390625 15.9576645,26.25 16.3395005,25.9726562 C17.0152818,25.4814453 17.3482896,24.6640624 17.206688,23.8408203 L16.4928208,19.6816406 C16.4830552,19.6240234 16.5025864,19.5644531 16.5455552,19.5224609 L19.5670396,16.5771484 C20.1656724,15.9941406 20.3766099,15.1376953 20.1178209,14.34375 C19.8600082,13.5488281 19.1852036,12.9804688 18.3580551,12.8603516 Z M18.1705551,15.1455078 L15.1490707,18.0908203 C14.6353988,18.5917969 14.4010238,19.3125 14.5221176,20.0195312 L15.2359848,24.1787109 C15.2398911,24.2060547 15.2545395,24.2880859 15.1637192,24.3544922 C15.0758286,24.4189453 14.9996567,24.3798828 14.9752426,24.3681641 L11.239891,22.4042969 C10.9225082,22.2373047 10.5748519,22.1533203 10.2262191,22.1533203 C9.8775863,22.1533203 9.52993,22.2373047 9.2115707,22.4042969 L5.4762191,24.3681641 C5.4527816,24.3798829 5.3785628,24.4189454 5.2887191,24.3544922 C5.1978988,24.2890625 5.2125472,24.2060547 5.2164535,24.1787109 L5.9293441,20.0195312 C6.0504379,19.3124999 5.8160628,18.5908203 5.3033675,18.0908203 L2.2818831,15.1455078 C2.2623518,15.1259765 2.201805,15.0673828 2.2359847,14.9609375 C2.271141,14.8554687 2.3531722,14.8427734 2.380516,14.8388672 L6.5562973,14.2324219 C7.2672348,14.1298828 7.8805161,13.6835938 8.1969223,13.0400391 L10.0650864,9.2558594 C10.0777817,9.2314453 10.1148911,9.15625 10.2262192,9.15625 C10.3375473,9.15625 10.3746567,9.2314453 10.387352,9.2558594 L12.2545395,13.0410157 C12.5728989,13.6845704 13.1861801,14.1298829 13.8951645,14.232422 L18.0709458,14.8388673 C18.0982896,14.8427736 18.1812974,14.8554689 18.2164536,14.9619142 C18.2506332,15.0673828 18.1900864,15.1259766 18.1705551,15.1455078 Z" id="Shape-Copy-4" fill="#663366" fill-rule="nonzero" opacity="0.2"></path>
                <path d="M59.1207485,55.3730469 C58.5699672,55.4121094 58.1559047,55.8896485 58.1949672,56.4414063 L58.2750453,57.569336 C58.3121547,58.0957032 58.7506312,58.4980469 59.2711391,58.4980469 C59.2945766,58.4980469 59.3189907,58.4970703 59.3434047,58.4951172 C59.894186,58.4560547 60.3082485,57.9785156 60.269186,57.4267578 L60.1891079,56.2988281 C60.1500454,55.7490234 59.6900845,55.3212891 59.1207485,55.3730469 Z" id="Path" fill="#663366"></path>
                <path d="M64.6002407,67.4863281 C62.6656704,67.4863281 61.0914516,69.0605469 61.0914516,70.9951172 C61.0914516,72.9296875 62.6656704,74.5039063 64.6002407,74.5039063 C66.534811,74.5039063 68.1090298,72.9296875 68.1090298,70.9951172 C68.1090298,69.0605469 66.534811,67.4863281 64.6002407,67.4863281 Z M64.6002407,72.5039063 C63.7682094,72.5039063 63.0914516,71.8271485 63.0914516,70.9951172 C63.0914516,70.1630859 63.7682094,69.4863281 64.6002407,69.4863281 C65.432272,69.4863281 66.1090298,70.1630859 66.1090298,70.9951172 C66.1090298,71.8271485 65.432272,72.5039063 64.6002407,72.5039063 Z" id="Shape" fill="#663366" fill-rule="nonzero"></path>
                <path d="M133.999657,16.7832031 C133.999657,7.5292969 126.47036,0 117.216454,0 C107.97329,0 100.452778,7.5292969 100.452778,16.7832031 C100.452778,23.9594116 105.103535,30.3685302 111.839501,32.6463012 L111.839501,42.7236327 L107.099266,42.7236327 L107.099266,37.5048827 C107.099266,34.5234374 104.669575,32.0976561 101.68227,32.0976561 C98.7008248,32.0976561 96.2760201,34.5234374 96.2760201,37.5048827 L96.2760201,42.7236327 L72.156271,42.7236327 C72.0125332,40.9130858 70.5095425,39.4785155 68.6627407,39.4785155 L55.5211391,39.4785155 C54.5465297,39.4785155 53.6070766,39.8876952 52.9439907,40.6005858 C52.2799282,41.3134766 51.9391079,42.2792969 52.0094204,43.25 L54.5318813,78.7285156 C54.6617641,80.5625 56.2047329,82 58.0436001,82 L68.6627407,82 C70.5094814,82 72.0125332,80.5653687 72.156271,78.7548828 L119.399069,78.7548828 C122.297506,78.7548828 124.655905,76.3974609 124.655905,73.4990234 C124.655905,72.0957031 124.110983,70.7773437 123.120749,69.7871093 C122.922506,69.5888671 122.710592,69.408203 122.487936,69.2460937 C123.801413,68.290039 124.655905,66.7412109 124.655905,64.9960937 C124.655905,63.2470703 123.797506,61.6953124 122.480124,60.7392578 C123.797506,59.7832031 124.655905,58.2314453 124.655905,56.4833984 C124.655905,54.734375 123.797506,53.1826171 122.480124,52.2265625 C123.797506,51.2705078 124.655905,49.71875 124.655905,47.9707031 C124.655905,46.3325805 123.876547,44.7918701 122.602194,43.8210449 L122.602194,32.645874 C129.346458,30.354126 133.999657,23.946167 133.999657,16.7832031 Z M70.1842251,78.4785156 C70.1842251,79.3173828 69.5016079,80 68.6627407,80 L58.0436001,80 C57.2486782,80 56.5826626,79.3789062 56.526022,78.5859375 L54.003561,43.1074219 C53.9732876,42.6816406 54.1168423,42.2753906 54.4078579,41.9628906 C54.6988735,41.6503906 55.0943813,41.4785156 55.5211392,41.4785156 L57.1536465,41.4785156 C57.1519986,41.5169067 57.1364346,41.5515136 57.1393032,41.5908203 L57.8199673,51.1708984 C57.8570767,51.6972656 58.2955532,52.0996093 58.8160611,52.0996093 C58.8394986,52.0996093 58.8639127,52.0986327 58.8883267,52.0966796 C59.439108,52.0576171 59.854147,51.580078 59.814108,51.0283202 L59.1355802,41.4785155 L68.6627408,41.4785155 C69.501608,41.4785155 70.1842252,42.1611327 70.1842252,42.9999999 L70.1842252,78.4785156 Z M122.655907,47.9707031 C122.655907,49.765625 121.194969,51.2265625 119.399071,51.2265625 C118.846336,51.2265625 118.399071,51.6738281 118.399071,52.2265625 C118.399071,52.7792969 118.846336,53.2265625 119.399071,53.2265625 C121.194969,53.2265625 122.655907,54.6875 122.655907,56.4833984 C122.655907,58.2783203 121.194969,59.7392578 119.399071,59.7392578 C118.846336,59.7392578 118.399071,60.1865234 118.399071,60.7392578 C118.399071,61.2919922 118.846336,61.7392578 119.399071,61.7392578 C121.194969,61.7392578 122.655907,63.2001953 122.655907,64.9960937 C122.655907,66.7910156 121.194969,68.2519531 119.399071,68.2519531 C118.846336,68.2519531 118.399071,68.6992187 118.399071,69.2519531 C118.399071,69.8046875 118.846336,70.2519531 119.399071,70.2519531 C120.275047,70.2519531 121.094383,70.5888672 121.706688,71.2011719 C122.318993,71.8134766 122.655907,72.6298828 122.655907,73.4990235 C122.655907,75.2939454 121.194969,76.7548829 119.399071,76.7548829 L72.1939907,76.7548829 L72.1939907,72.3183595 L87.6773872,72.3183595 C88.2301216,72.3183595 88.6773872,71.8710939 88.6773872,71.3183595 C88.6773872,70.7656251 88.2301216,70.3183595 87.6773872,70.3183595 L72.1939907,70.3183595 L72.1939907,44.7236328 L97.27602,44.7236328 C97.8287544,44.7236328 98.27602,44.2763672 98.27602,43.7236328 L98.27602,37.5048828 C98.27602,35.6259765 99.8043403,34.0976562 101.68227,34.0976562 C103.566059,34.0976562 105.099262,35.6259765 105.099262,37.5048828 L105.099262,43.7236328 C105.099262,44.2763672 105.546528,44.7236328 106.099262,44.7236328 L112.8395,44.7236328 L119.399071,44.7236328 C119.989891,44.7236328 120.571922,44.8876953 121.091454,45.2050781 C122.056297,45.7773438 122.655907,46.8369141 122.655907,47.9707031 Z M113.8395,42.7236328 L113.8395,33.2060547 C113.900658,33.218689 113.964439,33.2226563 114.025841,33.2345581 C114.44265,33.3155518 114.864098,33.3792725 115.289757,33.4279175 C115.42025,33.4428101 115.54995,33.4574585 115.681114,33.4692993 C116.188866,33.5152588 116.699852,33.546875 117.216454,33.546875 C117.726097,33.546875 118.23452,33.5150146 118.741844,33.468689 C118.86245,33.4577027 118.982079,33.4440308 119.102501,33.430542 C119.550011,33.3799439 119.995567,33.3135376 120.438499,33.2271118 C120.492699,33.2165527 120.548057,33.2132568 120.602196,33.2021484 L120.602196,42.8642578 C120.492699,42.8383789 120.380638,42.8244018 120.269493,42.805603 C120.201195,42.7940063 120.133873,42.7785034 120.065086,42.7695923 C119.844566,42.7411499 119.622398,42.7236328 119.399071,42.7236328 L113.8395,42.7236328 Z M121.325829,30.9658203 C119.296288,31.550293 117.150841,31.6876221 115.114037,31.3983765 C114.433983,31.3016358 113.765282,31.1572266 113.115868,30.9658203 C106.837544,29.1591797 102.452778,23.3271484 102.452778,16.7832031 C102.452778,8.6318359 109.075829,2 117.216454,2 C125.367821,2 131.999657,8.6318359 131.999657,16.7832031 C131.999657,23.3154297 127.610008,29.1484375 121.325829,30.9658203 Z" id="Shape" fill="#663366" fill-rule="nonzero"></path>
                <path d="M1,44.5 L48.4605635,44.5" id="Path-12" stroke="#663366" stroke-width="2" stroke-linecap="round"></path>
                <path d="M1,77.5 L51.1448784,77.5" id="Path-12-Copy" stroke="#663366" stroke-width="2" stroke-linecap="round"></path>
            </g>
        </g>
    </g>
</svg>